<?xml version="1.0" encoding="utf-8"?>
<!-- Generator: Adobe Illustrator 15.0.0, SVG Export Plug-In . SVG Version: 6.00 Build 0)  -->
<!DOCTYPE svg PUBLIC "-//W3C//DTD SVG 1.1//EN" "http://www.w3.org/Graphics/SVG/1.1/DTD/svg11.dtd">
<svg version="1.1" id="Layer_1" xmlns="http://www.w3.org/2000/svg" xmlns:xlink="http://www.w3.org/1999/xlink" x="0px" y="0px"
	 width="671.388px" height="235.968px" viewBox="48.795 181.594 671.388 235.968"
	 enable-background="new 48.795 181.594 671.388 235.968" xml:space="preserve">
<g>
	<g id="XMLID_1210_">
		<g id="XMLID_1214_">
			<path id="XMLID_1471_" fill="#094063" d="M163.99,400.759c0,0.97,0,1.938,0,2.827c-0.081,0.97-0.081,1.858-0.162,2.828
				c-0.081,0.969-0.081,1.857-0.162,2.746c-0.081,0.808-0.162,1.616-0.242,2.424H143.31c5.413-9.129,17.288-33.202,12.764-62.123
				c0.081,0.243,0.162,0.404,0.243,0.646c1.05,3.231,1.938,6.705,2.908,10.341c0.969,3.554,1.696,7.351,2.343,11.147
				c0.323,1.939,0.646,3.878,0.969,5.816c0.242,1.939,0.485,3.878,0.646,5.897c0.404,3.958,0.727,7.836,0.727,11.714
				C163.99,396.962,163.99,398.9,163.99,400.759z"/>
			<path id="XMLID_1399_" fill="#094063" d="M151.227,274.333c1.211-4.039,2.908-7.594,4.686-10.583
				c1.777-2.989,3.554-5.413,5.17-7.432l0.081-0.081c-1.373,4.686-10.421,37.564-3.312,60.507c-1.373-2.101-2.504-4.362-3.474-6.705
				c-1.05-2.504-2.02-5.008-2.827-7.513c-1.616-5.009-2.262-10.098-2.262-14.864C149.207,282.896,150.096,278.372,151.227,274.333z"
				/>
			<path id="XMLID_1458_" fill="#094063" d="M178.854,370.95c-0.081,17.771-3.07,34.898-4.201,40.634h-8.886
				c0.081-0.404,0.162-0.808,0.162-1.212c0.081-0.97,0.161-1.858,0.242-2.827c0.081-0.565,0.081-1.212,0.162-1.777
				c0.081-0.97,0.162-2.505,0.242-3.474c0.081-1.131,0.162-2.343,0.162-3.474c0-0.97,0-2.02,0-2.989
				c0-4.039-0.242-8.078-0.565-12.198c-0.242-2.02-0.485-4.039-0.808-6.059c-0.323-2.02-0.646-3.959-1.05-5.979
				c-0.404-1.938-0.808-3.958-1.292-5.816c-0.485-1.938-0.97-3.797-1.535-5.654c-1.05-3.636-2.262-7.109-3.554-10.421
				c-1.212-3.231-2.666-6.221-3.958-8.968c-0.808-1.615-1.616-3.069-2.343-4.523c-1.292-2.343-2.423-4.767-3.555-7.271l0,0
				c-13.571-30.455-2.747-53.56,6.221-65.758c-1.454,2.262-2.747,4.928-3.878,7.836c-1.616,4.201-2.747,9.047-2.908,14.218
				c-0.242,5.17,0.323,10.663,1.858,16.157c0.808,2.747,1.615,5.412,2.827,8.078c0.323,0.646,0.565,1.373,0.889,2.02l0.242,0.484
				l0.081,0.162l0.081,0.161l0.162,0.242l0.485,0.97c0.646,1.293,1.454,2.666,2.262,3.878c0.808,1.212,2.02,2.746,3.474,4.281
				C171.988,335.082,178.935,352.773,178.854,370.95z"/>
		</g>
		<path id="XMLID_1213_" fill="#094063" d="M116.974,276.191c0,0,13.168,3.231,23.104,26.578c0,0,0-7.755,0.889-10.34
			C141.048,292.428,133.696,279.422,116.974,276.191z"/>
		<path id="XMLID_1211_" fill="#094063" d="M167.949,329.589c0,0,12.844-10.26,13.652-24.881c0,0,1.454,17.126-9.937,30.132
			C171.665,334.84,169.726,331.285,167.949,329.589z"/>
	</g>
	<path fill="#0C5691" d="M233.464,249.29c0,0,8.401,3.635,10.583-3.797c0.889-4.201,0.727-4.604,1.212-5.089
		c0,0-1.696,0.889-5.17,0.485C237.18,240.646,232.898,242.666,233.464,249.29L233.464,249.29z"/>
	<path fill="#0C5691" d="M223.447,265.851c0,0,0.646-9.128-7.028-8.725c-4.201,0.485-4.604,0.889-5.17,0.485
		c0,0,1.454,1.373,2.181,4.686C214.076,265.205,217.388,268.597,223.447,265.851L223.447,265.851z"/>
	<path fill="#0C5691" d="M180.147,262.539c0,0,0.646-9.128-7.028-8.725c-4.201,0.485-4.604,0.889-5.17,0.485
		c0,0,1.454,1.373,2.181,4.685C170.695,261.892,174.007,265.285,180.147,262.539L180.147,262.539z"/>
	<path fill="#0C5691" d="M211.329,224.812c0,0,0.646-9.128-7.028-8.725c-4.201,0.485-4.605,0.889-5.17,0.485
		c0,0,1.454,1.374,2.181,4.686C201.958,224.167,205.271,227.56,211.329,224.812L211.329,224.812z"/>
	<path fill="#0C5691" d="M175.3,234.507c0,0,9.048-0.97,7.352-8.482c-1.293-4.039-1.697-4.362-1.374-5.008
		c0,0-1.05,1.616-4.282,2.989C174.169,225.136,171.503,229.014,175.3,234.507L175.3,234.507z"/>
	<path fill="#0C5691" d="M102.11,257.368c0,0,10.825-1.131,8.805-10.179c-1.535-4.847-2.02-5.25-1.696-5.978
		c0,0-1.292,1.938-5.089,3.554C100.817,246.14,97.586,250.744,102.11,257.368L102.11,257.368z"/>
	<path fill="#0C5691" d="M93.305,294.125c0,0,10.825-1.131,8.806-10.179c-1.535-4.847-2.02-5.251-1.697-5.978
		c0,0-1.292,1.939-5.089,3.554C92.012,282.896,88.781,287.582,93.305,294.125L93.305,294.125z"/>
	<path fill="#0C5691" d="M85.388,324.257c0,0-7.432,7.998,0.081,13.41c4.362,2.666,4.928,2.666,5.17,3.393
		c0,0-0.323-2.343,1.535-6.059C93.79,331.932,93.143,326.276,85.388,324.257L85.388,324.257z"/>
	<path fill="#0C5691" d="M67.535,293.64c0,0-6.786,7.271,0.081,12.198c3.958,2.423,4.524,2.423,4.766,3.151
		c0,0-0.323-2.101,1.374-5.494C75.128,300.507,74.644,295.417,67.535,293.64L67.535,293.64z"/>
	<path fill="#0C5691" d="M134.181,186.198c0,0-2.828,8.644,4.766,10.179c4.201,0.485,4.686,0.242,5.17,0.727
		c0,0-1.05-1.616-0.97-5.089C143.148,189.026,140.725,184.986,134.181,186.198L134.181,186.198z"/>
	<path fill="#0C5691" d="M133.05,240.485c0,0,8.886,2.1,9.694-5.574c0.162-4.282-0.162-4.686,0.323-5.17
		c0,0-1.535,1.211-5.009,1.454C135.15,231.275,131.273,234.103,133.05,240.485L133.05,240.485z"/>
	<path fill="#0C5691" d="M79.006,228.69c0,0,4.12,8.159,10.501,3.877c3.393-2.585,3.474-3.07,4.201-3.07
		c0,0-1.938-0.404-4.281-2.908C87.408,224.409,82.803,223.197,79.006,228.69L79.006,228.69z"/>
	<path fill="#0C5691" d="M73.513,258.742c0,0,4.12,8.159,10.502,3.877c3.393-2.585,3.474-3.069,4.201-3.069
		c0,0-1.939-0.404-4.281-2.908C81.915,254.379,77.31,253.249,73.513,258.742L73.513,258.742z"/>
	<path fill="#0C5691" d="M49.036,250.986c0,0-2.02,8.886,5.655,9.694c4.281,0.162,4.686-0.162,5.17,0.323
		c0,0-1.211-1.535-1.454-5.009C58.245,253.006,55.498,249.209,49.036,250.986L49.036,250.986z"/>
	<path fill="#0C5691" d="M108.815,212.292c0,0,8.886,2.1,9.694-5.574c0.162-4.282-0.162-4.686,0.323-5.17
		c0,0-1.535,1.212-5.009,1.454C110.835,203.082,107.038,205.829,108.815,212.292L108.815,212.292z"/>
	<path fill="#0C5691" d="M145.329,216.25c0,0,8.159,4.12,10.744-3.15c1.131-4.12,0.97-4.604,1.535-5.008c0,0-1.777,0.808-5.17,0.242
		C149.449,207.768,145.087,209.625,145.329,216.25L145.329,216.25z"/>
	<path fill="#67943F" d="M251.802,318.521c0,0-5.978,1.696-6.786-3.555c-0.243-2.908,0-3.15-0.404-3.474c0,0,1.05,0.728,3.393,0.808
		C250.105,312.301,252.771,314.078,251.802,318.521L251.802,318.521z"/>
	<path fill="#A4BE3A" d="M234.918,259.63c0,0-7.028,1.939-7.998-4.201c-0.242-3.393-0.081-3.716-0.485-4.12
		c0,0,1.292,0.889,4.04,0.97C232.898,252.279,236.049,254.379,234.918,259.63L234.918,259.63z"/>
	<path fill="#A4BE3A" d="M238.23,236.123c0,0-7.028,1.938-7.998-4.201c-0.242-3.393-0.081-3.716-0.484-4.12
		c0,0,1.292,0.889,4.039,0.969C236.21,228.771,239.361,230.872,238.23,236.123L238.23,236.123z"/>
	<path fill="#67943F" d="M244.046,273.606c0,0,1.616-5.897,6.382-3.958c2.585,1.292,2.666,1.535,3.151,1.454
		c0,0-1.212,0.565-2.424,2.504C250.105,275.302,247.278,276.676,244.046,273.606L244.046,273.606z"/>
	<path fill="#67943F" d="M194.445,338.071c0,0,1.616-5.979,6.463-4.039c2.585,1.292,2.747,1.615,3.231,1.454
		c0,0-1.212,0.565-2.424,2.504C200.666,339.849,197.758,341.222,194.445,338.071L194.445,338.071z"/>
	<path fill="#67943F" d="M183.297,301.961c0,0,1.616-5.978,6.463-4.039c2.585,1.292,2.747,1.615,3.231,1.454
		c0,0-1.211,0.565-2.423,2.504C189.518,303.657,186.609,305.031,183.297,301.961L183.297,301.961z"/>
	<path fill="#67943F" d="M218.761,340.656c0,0,6.14-6.14,10.664-0.323c2.262,3.393,2.262,3.878,2.908,4.039
		c0,0-1.858-0.161-4.766,1.373C225.062,347.038,220.539,346.715,218.761,340.656L218.761,340.656z"/>
	<path fill="#67943F" d="M50.49,302.203c0,0,7.109-4.928,10.501,1.535c1.616,3.716,1.535,4.2,2.101,4.443
		c0,0-1.777-0.566-4.928,0.484C55.498,309.635,51.217,308.585,50.49,302.203L50.49,302.203z"/>
	<path fill="#67943F" d="M208.664,316.906c0,0,4.928-5.09,0.162-8.725c-2.747-1.777-3.151-1.777-3.312-2.263
		c0,0,0.162,1.535-1.05,3.878C203.332,311.897,203.655,315.532,208.664,316.906L208.664,316.906z"/>
	<path fill="#A4BE3A" d="M265.05,266.497c0,0,5.655,0.162,5.251-4.605c-0.404-2.585-0.646-2.827-0.485-3.15
		c0,0-0.808,0.889-2.828,1.454C265.131,260.6,263.192,262.781,265.05,266.497L265.05,266.497z"/>
	<path fill="#A4BE3A" d="M223.285,212.13c0,0,5.655,0.162,5.251-4.605c-0.404-2.585-0.646-2.827-0.485-3.15
		c0,0-0.808,0.889-2.827,1.454C223.366,206.232,221.427,208.414,223.285,212.13L223.285,212.13z"/>
	<path fill="#F4CB20" d="M267.07,254.379c0,0,1.05-5.574-3.797-5.897c-2.666,0-2.908,0.242-3.231-0.081c0,0,0.808,0.889,1.05,3.07
		C261.334,253.329,263.111,255.591,267.07,254.379L267.07,254.379z"/>
	<path fill="#67943F" d="M240.25,300.184c0,0-3.554-6.543,2.343-8.805c3.312-1.05,3.716-0.889,3.958-1.374c0,0-0.565,1.454,0,4.201
		C246.955,296.548,245.662,300.184,240.25,300.184L240.25,300.184z"/>
	<path fill="#67943F" d="M209.552,212.292c0,0-4.523-8.321,2.989-11.229c4.201-1.292,4.686-1.131,5.089-1.696
		c0,0-0.808,1.858-0.081,5.332C218.196,207.768,216.5,212.292,209.552,212.292L209.552,212.292z"/>
	<path fill="#F4CB20" d="M257.053,297.195c0,0,6.14-5.413,10.017,0.323c1.939,3.312,1.858,3.797,2.423,3.958
		c0,0-1.696-0.323-4.524,0.969C262.546,303.577,258.345,303.011,257.053,297.195L257.053,297.195z"/>
	<path fill="#F4CB20" d="M215.691,331.043c0,0-5.816-2.262-3.312-6.947c1.535-2.424,1.858-2.585,1.777-3.07
		c0,0,0.404,1.293,2.262,2.747C218.034,325.064,219.165,328.135,215.691,331.043L215.691,331.043z"/>
	<path fill="#F4CB20" d="M240.007,282.007c0,0,4.928-5.978,9.452-1.212c2.343,2.747,2.343,3.231,2.908,3.312
		c0,0-1.616,0-4.039,1.616C246.147,287.097,242.108,287.258,240.007,282.007L240.007,282.007z"/>
	<path fill="#F4CB20" d="M213.51,244.443c0,0,5.574-6.786,10.664-1.373c2.585,3.15,2.585,3.635,3.231,3.716c0,0-1.858,0-4.605,1.858
		C220.458,250.179,215.934,250.34,213.51,244.443L213.51,244.443z"/>
	<path fill="#F4CB20" d="M125.699,249.855c0,0,2.828-8.24,9.533-5.008c3.554,2.02,3.716,2.504,4.362,2.342
		c0,0-1.777,0.646-3.635,3.312C134.181,252.845,129.98,254.541,125.699,249.855L125.699,249.855z"/>
	<path fill="#F4CB20" d="M107.765,281.927c0,0,7.189-5.17,10.744,1.373c1.696,3.716,1.616,4.201,2.181,4.524
		c0,0-1.858-0.485-5.009,0.565C113.016,289.358,108.573,288.389,107.765,281.927L107.765,281.927z"/>
	<path fill="#F4CB20" d="M99.768,243.635c0,0-7.271,7.028-12.441,0.162c-2.585-3.958-2.504-4.524-3.231-4.766
		c0,0,2.1,0.242,5.493-1.535C92.578,236.042,97.748,236.526,99.768,243.635L99.768,243.635z"/>
	<path fill="#F4CB20" d="M162.94,209.787c0,0,9.048-3.635,11.148,4.443c0.808,4.443,0.566,4.928,1.131,5.413
		c0,0-1.858-1.05-5.494-0.727C166.575,219.239,162.051,216.977,162.94,209.787L162.94,209.787z"/>
	<path fill="#F4CB20" d="M84.984,218.996c0,0,4.282-8.725,11.229-4.201c3.635,2.747,3.797,3.312,4.524,3.231
		c0,0-2.02,0.485-4.524,3.151C94.032,223.601,89.185,224.894,84.984,218.996L84.984,218.996z"/>
	<path fill="#F4CB20" d="M189.599,224.409c0,0,6.382-2.02,7.432,3.555c0.323,3.15,0.162,3.474,0.565,3.797
		c0,0-1.212-0.808-3.716-0.727C191.618,231.033,188.71,229.256,189.599,224.409L189.599,224.409z"/>
	<path fill="#F4CB20" d="M152.681,231.922c0,0-6.705-0.162-5.897-5.816c0.646-3.07,0.97-3.312,0.727-3.716
		c0,0,0.889,1.131,3.312,1.939C152.923,224.894,155.104,227.56,152.681,231.922L152.681,231.922z"/>
	<path fill="#F4CB20" d="M127.476,218.512c0,0-6.947-0.727-5.655-6.463c0.969-3.15,1.292-3.312,1.05-3.877
		c0,0,0.808,1.212,3.312,2.262C128.284,211.322,130.384,214.23,127.476,218.512L127.476,218.512z"/>
	<path fill="#F4CB20" d="M60.103,243.312c0,0-6.948-0.727-5.655-6.462c0.97-3.151,1.293-3.312,1.05-3.878
		c0,0,0.808,1.212,3.312,2.262C60.911,236.123,63.011,239.031,60.103,243.312L60.103,243.312z"/>
	<path fill="#F4CB20" d="M115.682,199.285c0,0-6.059,2.908-7.836-2.504c-0.808-3.07-0.646-3.393-1.05-3.635
		c0,0,1.292,0.646,3.797,0.243C112.773,192.984,115.924,194.357,115.682,199.285L115.682,199.285z"/>
	<path fill="#F4CB20" d="M152.923,193.227c0,0-7.028-2.101-4.604-7.836c1.616-3.07,1.938-3.231,1.858-3.797
		c0,0,0.646,1.454,2.908,2.989C155.104,185.956,156.72,189.43,152.923,193.227L152.923,193.227z"/>
	<path fill="#F4CB20" d="M193.072,189.188c0,0,3.231,7.351-3.312,9.371c-3.635,0.808-4.12,0.646-4.443,1.131
		c0,0,0.808-1.535,0.404-4.524C185.398,192.418,187.175,188.622,193.072,189.188L193.072,189.188z"/>
	<path fill="#09A6E0" d="M226.92,313.836c0,0,3.877,4.686-0.404,7.432c-2.504,1.374-2.828,1.293-2.989,1.777
		c0,0,0.243-1.292-0.646-3.393C222.073,317.794,222.558,314.725,226.92,313.836L226.92,313.836z"/>
	<path fill="#09A6E0" d="M214.076,335.243c0,0,4.928,5.816-0.484,9.371c-3.151,1.696-3.555,1.616-3.716,2.182
		c0,0,0.323-1.616-0.808-4.282C207.937,340.252,208.583,336.294,214.076,335.243L214.076,335.243z"/>
	<path fill="#09A6E0" d="M175.219,298.649c0,0,6.786,3.554,3.07,8.886c-2.262,2.746-2.666,2.827-2.666,3.474
		c0,0-0.323-1.616-2.423-3.636C171.503,305.596,170.614,301.799,175.219,298.649L175.219,298.649z"/>
	<path fill="#09A6E0" d="M248.167,220.935c0,0,5.735,6.867-0.565,10.987c-3.635,2.02-4.12,1.938-4.362,2.585
		c0,0,0.404-1.858-0.97-5.009C240.977,226.833,241.785,222.309,248.167,220.935L248.167,220.935z"/>
	<path fill="#09A6E0" d="M251.398,296.468c0,0,6.947,3.393,3.393,8.886c-2.181,2.908-2.585,2.989-2.585,3.555
		c0,0-0.404-1.615-2.504-3.635C247.843,303.577,246.793,299.78,251.398,296.468L251.398,296.468z"/>
	<path fill="#0C5691" d="M235.403,334.032c0,0,7.189-2.505,8.482,3.797c0.485,3.474,0.243,3.877,0.727,4.2
		c0,0-1.373-0.889-4.281-0.727C237.907,341.464,234.595,339.525,235.403,334.032L235.403,334.032z"/>
	<path fill="#0C5691" d="M256.972,279.907c0,0-2.02-7.836,4.767-8.806c3.796-0.242,4.201,0,4.604-0.404c0,0-1.05,1.373-1.131,4.443
		C265.131,277.887,262.708,281.361,256.972,279.907L256.972,279.907z"/>
	<path fill="#0C5691" d="M225.143,284.512c0,0,5.736-5.736,10.017-0.323c2.101,3.15,2.101,3.635,2.666,3.797
		c0,0-1.777-0.162-4.443,1.292C231.041,290.49,226.84,290.247,225.143,284.512L225.143,284.512z"/>
	<path fill="#0C5691" d="M189.599,292.913c0,0-0.889-7.271,5.251-7.271c3.393,0.242,3.716,0.485,4.201,0.162
		c0,0-1.05,1.131-1.535,3.877C197.111,292.024,194.607,294.852,189.599,292.913L189.599,292.913z"/>
	<path fill="#0C5691" d="M173.2,286.046c0,0,4.604,4.524,0.323,7.917c-2.504,1.696-2.827,1.696-2.989,2.181
		c0,0,0.162-1.374-1.05-3.474C168.433,290.812,168.676,287.5,173.2,286.046L173.2,286.046z"/>
	<path fill="#0C5691" d="M145.087,264.235c0,0,4.604,4.524,0.323,7.917c-2.504,1.696-2.828,1.696-2.989,2.181
		c0,0,0.162-1.374-1.05-3.474C140.401,268.92,140.563,265.608,145.087,264.235L145.087,264.235z"/>
	<path fill="#0C5691" d="M181.036,339.849c0,0-2.908-5.493,2.02-7.352c2.747-0.808,3.07-0.728,3.393-1.131
		c0,0-0.484,1.212-0.081,3.554C186.771,336.94,185.56,339.929,181.036,339.849L181.036,339.849z"/>
	<path fill="#0C5691" d="M232.656,313.675c0,0-1.05-8.321,5.978-8.402c3.958,0.242,4.282,0.565,4.767,0.162
		c0,0-1.212,1.292-1.777,4.443C241.219,312.624,238.392,315.937,232.656,313.675L232.656,313.675z"/>
	<path fill="#A4BE3A" d="M223.124,328.135c0,0,5.897-1.938,6.947,3.15c0.404,2.908,0.162,3.15,0.566,3.474
		c0,0-1.131-0.727-3.474-0.646C225.062,334.274,222.316,332.658,223.124,328.135L223.124,328.135z"/>
	<path fill="#F4CB20" d="M231.363,326.842c0,0-0.808-8.239,6.221-8.078c3.877,0.404,4.201,0.728,4.685,0.323
		c0,0-1.292,1.212-1.858,4.362C239.927,326.034,237.019,329.185,231.363,326.842L231.363,326.842z"/>
	<path fill="#F4CB20" d="M190.972,312.866c0,0-1.938-8.078,5.009-8.886c3.877-0.162,4.201,0.081,4.686-0.323
		c0,0-1.05,1.374-1.212,4.524C199.292,310.928,196.788,314.401,190.972,312.866L190.972,312.866z"/>
	<path fill="#67943F" d="M256.81,235.234c0,0,7.109,7.189,0.323,12.44c-3.958,2.585-4.524,2.585-4.766,3.312
		c0,0,0.242-2.181-1.535-5.574C249.297,242.585,249.701,237.334,256.81,235.234L256.81,235.234z"/>
	<path fill="#67943F" d="M226.84,234.991c0,0-7.513,6.786-12.441-0.242c-2.423-4.039-2.343-4.604-3.07-4.847
		c0,0,2.181,0.323,5.574-1.293C219.892,227.075,225.062,227.721,226.84,234.991L226.84,234.991z"/>
	<path fill="#67943F" d="M178.046,205.021c0,0-10.179,0.081-9.209-8.402c0.888-4.685,1.292-5.008,0.888-5.735
		c0,0,1.374,1.696,5.089,2.747C178.046,194.519,181.52,198.396,178.046,205.021L178.046,205.021z"/>
	<path fill="#67943F" d="M141.532,212.21c0,0-10.179,0.081-9.209-8.401c0.889-4.686,1.292-5.009,0.889-5.736
		c0,0,1.373,1.697,5.089,2.747C141.452,201.79,145.006,205.667,141.532,212.21L141.532,212.21z"/>
	<path fill="#67943F" d="M116.812,223.924c0,0,10.987-1.939,11.472,7.432c-0.081,5.17-0.485,5.655,0.081,6.382
		c0,0-1.777-1.535-5.978-2.02C118.751,235.234,114.309,231.679,116.812,223.924L116.812,223.924z"/>
	<path fill="#67943F" d="M109.704,275.625c0,0-9.855,2.504-10.986-6.059c-0.242-4.767,0.081-5.251-0.485-5.816
		c0,0,1.777,1.292,5.574,1.454C107.2,265.366,111.562,268.355,109.704,275.625L109.704,275.625z"/>
	<path fill="#67943F" d="M119.317,340.252c0,0-9.694-3.15-6.059-10.986c2.343-4.201,2.827-4.362,2.666-5.17
		c0,0,0.808,2.02,3.958,4.2C122.629,330.235,124.729,335.082,119.317,340.252L119.317,340.252z"/>
	<path fill="#67943F" d="M84.903,292.024c0,0-9.937,3.231-11.633-5.493c-0.565-4.847-0.242-5.332-0.889-5.897
		c0,0,1.858,1.212,5.816,1.131C81.753,281.765,86.357,284.512,84.903,292.024L84.903,292.024z"/>
	<path fill="#67943F" d="M184.671,234.668c0,0,8.967,0.162,7.917,7.674c-0.889,4.12-1.211,4.443-0.969,5.008
		c0,0-1.212-1.535-4.362-2.504C184.428,243.877,181.439,240.323,184.671,234.668L184.671,234.668z"/>
	<path fill="#67943F" d="M158.901,243.555c0,0,7.109,0.081,6.301,6.059c-0.727,3.231-0.97,3.474-0.727,3.958
		c0,0-0.97-1.212-3.474-2.02C158.739,250.906,156.396,248.078,158.901,243.555L158.901,243.555z"/>
	<path fill="#67943F" d="M76.825,240.646c0,0,7.109,0.081,6.301,6.059c-0.727,3.231-0.969,3.474-0.727,3.958
		c0,0-0.969-1.212-3.474-2.02C76.664,247.917,74.24,245.17,76.825,240.646L76.825,240.646z"/>
	<path fill="#67943F" d="M121.983,265.689c0,0,7.109,0.081,6.301,6.059c-0.727,3.231-0.97,3.474-0.727,3.958
		c0,0-0.97-1.211-3.474-2.02C121.821,273.041,119.479,270.294,121.983,265.689L121.983,265.689z"/>
	<path fill="#67943F" d="M96.294,202.436c0,0,8.644,0.162,7.674,7.352c-0.808,3.958-1.212,4.281-0.889,4.847
		c0,0-1.131-1.454-4.282-2.423C96.051,211.322,93.143,207.929,96.294,202.436L96.294,202.436z"/>
	<path fill="#F4CB20" d="M231.929,213.099c0,0,8.725-0.162,7.917,7.19c-0.727,4.039-1.05,4.362-0.727,4.928
		c0,0-1.212-1.454-4.362-2.343C232.01,222.066,228.94,218.754,231.929,213.099L231.929,213.099z"/>
	<path fill="#09A6E0" d="M200.262,292.105c0,0,7.675-2.828,9.29,3.877c0.566,3.797,0.404,4.201,0.889,4.604
		c0,0-1.535-0.889-4.604-0.727C203.17,300.103,199.454,298.083,200.262,292.105L200.262,292.105z"/>
	<path fill="#09A6E0" d="M207.128,268.92c0,0-7.189-0.485-6.059-6.382c0.889-3.231,1.131-3.474,0.969-3.958
		c0,0,0.889,1.212,3.474,2.181C207.694,261.488,209.956,264.478,207.128,268.92L207.128,268.92z"/>
	<path fill="#09A6E0" d="M164.637,261.327c0,0,4.847,3.151,1.696,6.867c-1.858,1.939-2.181,1.939-2.181,2.423
		c0,0-0.162-1.211-1.535-2.908C161.405,266.335,161.001,263.346,164.637,261.327L164.637,261.327z"/>
	<path fill="#09A6E0" d="M176.512,249.452c0,0-7.19-0.485-6.059-6.382c0.889-3.231,1.131-3.474,0.97-3.958
		c0,0,0.889,1.212,3.474,2.181C176.996,242.101,179.258,245.009,176.512,249.452L176.512,249.452z"/>
	<path fill="#09A6E0" d="M154.942,219.319c0,0,6.382-3.312,8.482,2.343c0.969,3.231,0.808,3.555,1.212,3.878
		c0,0-1.374-0.646-4.04-0.081C158.335,225.863,154.862,224.57,154.942,219.319L154.942,219.319z"/>
	<path fill="#09A6E0" d="M182.974,264.558c0,0,6.867,2.181,4.362,7.674c-1.616,2.908-1.938,3.07-1.858,3.635
		c0,0-0.565-1.454-2.827-2.908C180.712,271.586,179.177,268.193,182.974,264.558L182.974,264.558z"/>
	<path fill="#09A6E0" d="M230.232,265.124c0,0,7.674,0.162,6.705,6.625c-0.808,3.474-1.131,3.797-0.808,4.281
		c0,0-0.97-1.292-3.797-2.181C229.99,273.041,227.405,269.971,230.232,265.124L230.232,265.124z"/>
	<path fill="#09A6E0" d="M216.338,215.119c0,0,7.189-2.666,8.644,3.716c0.565,3.554,0.323,3.877,0.808,4.281
		c0,0-1.374-0.889-4.282-0.646C219.004,222.632,215.53,220.693,216.338,215.119L216.338,215.119z"/>
	<path fill="#09A6E0" d="M202.443,232.083c0,0,7.675,0.162,6.705,6.625c-0.808,3.474-1.131,3.797-0.808,4.281
		c0,0-0.969-1.292-3.797-2.181C202.201,240,199.696,236.93,202.443,232.083L202.443,232.083z"/>
	<path fill="#09A6E0" d="M68.101,241.292c0,0,9.047,7.109,2.181,13.976c-4.04,3.474-4.686,3.554-4.847,4.443
		c0,0,0-2.504-2.585-6.059C60.668,250.583,60.426,244.604,68.101,241.292L68.101,241.292z"/>
	<path fill="#09A6E0" d="M67.212,310.523c0,0,7.189,5.655,1.696,11.067c-3.231,2.747-3.716,2.828-3.797,3.474
		c0,0,0-1.938-2.02-4.766C61.314,317.875,61.072,313.189,67.212,310.523L67.212,310.523z"/>
	<path fill="#09A6E0" d="M180.551,208.171c0,0,7.674,0.162,6.705,6.624c-0.808,3.474-1.131,3.797-0.808,4.282
		c0,0-0.969-1.292-3.796-2.181C180.309,216.088,177.723,213.019,180.551,208.171L180.551,208.171z"/>
	<path fill="#09A6E0" d="M122.468,188.783c0,0,7.189,2.747,4.12,8.482c-1.938,2.989-2.262,3.15-2.181,3.797
		c0,0-0.484-1.535-2.827-3.312C119.56,196.135,118.186,192.418,122.468,188.783L122.468,188.783z"/>
	<path fill="#09A6E0" d="M160.355,182.563c0,0,7.674,0.162,6.705,6.625c-0.808,3.474-1.131,3.796-0.808,4.281
		c0,0-0.969-1.292-3.797-2.181C160.032,190.48,157.527,187.491,160.355,182.563L160.355,182.563z"/>
	<path fill="#09A6E0" d="M146.46,236.445c0,0,7.674,0.162,6.705,6.625c-0.808,3.474-1.131,3.797-0.808,4.281
		c0,0-0.969-1.292-3.797-2.181C146.218,244.362,143.713,241.292,146.46,236.445L146.46,236.445z"/>
	<path fill="#09A6E0" d="M103.322,222.066c0,0,1.697-7.513,7.836-5.25c3.231,1.454,3.474,1.858,4.04,1.696
		c0,0-1.454,0.727-2.908,3.231C111.077,223.924,107.604,225.782,103.322,222.066L103.322,222.066z"/>
	<path fill="#09A6E0" d="M80.864,221.824c0,0-5.655,5.17-9.452-0.162c-1.858-3.07-1.777-3.474-2.343-3.716
		c0,0,1.616,0.242,4.281-0.97C75.613,215.927,79.491,216.331,80.864,221.824L80.864,221.824z"/>
	<path fill="#09A6E0" d="M124.164,246.947c0,0-6.786,3.635-9.128-2.423c-1.05-3.393-0.889-3.797-1.374-4.12c0,0,1.535,0.646,4.362,0
		C120.448,239.919,124.164,241.292,124.164,246.947L124.164,246.947z"/>
	<path fill="#09A6E0" d="M133.374,256.237c0,0,7.432,1.939,5.008,7.998c-1.535,3.231-1.939,3.393-1.777,3.958
		c0,0-0.646-1.535-3.15-2.989C131.354,263.831,129.577,260.357,133.374,256.237L133.374,256.237z"/>
	<path fill="#09A6E0" d="M127.072,315.855c0,0,3.15-7.028,8.725-3.635c2.908,2.1,3.07,2.504,3.635,2.423
		c0,0-1.616,0.404-3.474,2.585C134.262,319.168,130.465,320.299,127.072,315.855L127.072,315.855z"/>
	<path fill="#09A6E0" d="M78.44,300.668c0,0,5.816-7.755,11.714-2.101c2.989,3.393,3.07,3.877,3.797,3.958
		c0,0-2.101,0.081-5.009,2.262C86.438,306.727,81.43,307.131,78.44,300.668L78.44,300.668z"/>
	<path fill="#09A6E0" d="M92.093,250.017c0,0,7.432,1.939,5.009,7.998c-1.535,3.231-1.939,3.393-1.777,3.958
		c0,0-0.646-1.535-3.15-2.989C89.993,257.691,88.215,254.137,92.093,250.017L92.093,250.017z"/>
	<path fill="#09A6E0" d="M64.708,279.099c0,0,6.14,1.616,4.201,6.625c-1.292,2.666-1.616,2.827-1.454,3.312
		c0,0-0.565-1.212-2.585-2.504C63.011,285.481,61.557,282.573,64.708,279.099L64.708,279.099z"/>
	<path fill="#09A6E0" d="M197.838,192.903c0,0,7.674,0.162,6.705,6.624c-0.808,3.474-1.131,3.797-0.808,4.282
		c0,0-0.97-1.292-3.797-2.181C197.596,200.82,195.092,197.75,197.838,192.903L197.838,192.903z"/>
	<path fill="#0C5691" d="M200.504,319.248c0,0,7.513,0.566,6.22,6.786c-0.969,3.393-1.292,3.636-1.05,4.12
		c0,0-0.889-1.293-3.554-2.343C199.858,327.004,197.515,323.934,200.504,319.248L200.504,319.248z"/>
	<path fill="#A4BE3A" d="M257.457,289.52c0,0,1.212-7.271,7.271-5.493c3.231,1.212,3.474,1.616,3.958,1.374
		c0,0-1.374,0.808-2.585,3.312C264.969,290.894,261.738,292.913,257.457,289.52L257.457,289.52z"/>
	<path fill="#09A6E0" d="M256.568,254.622c0,0,8.079,4.928,3.07,11.148c-2.989,3.231-3.474,3.312-3.474,4.039
		c0,0-0.242-2.02-2.666-4.686C251.398,262.942,250.59,258.096,256.568,254.622L256.568,254.622z"/>
	<path fill="#F4CB20" d="M242.835,264.478c0,0-4.605-5.574,0.565-8.886c2.989-1.616,3.393-1.535,3.554-2.02
		c0,0-0.323,1.535,0.727,4.039C248.651,259.792,248.085,263.508,242.835,264.478L242.835,264.478z"/>
	<path fill="#F4CB20" d="M216.58,296.791c0,0-4.604-5.574,0.565-8.886c2.989-1.615,3.393-1.535,3.555-2.02
		c0,0-0.323,1.535,0.727,4.04C222.396,292.105,221.75,295.821,216.58,296.791L216.58,296.791z"/>
	<path fill="#F4CB20" d="M193.234,281.119c0,0-5.009-6.14,0.646-9.775c3.231-1.777,3.716-1.696,3.958-2.262
		c0,0-0.323,1.696,0.808,4.443C199.616,275.949,198.969,279.988,193.234,281.119L193.234,281.119z"/>
	<path fill="#F4CB20" d="M175.461,278.938c0,0-7.836-1.292-5.978-7.755c1.292-3.474,1.696-3.716,1.454-4.282
		c0,0,0.808,1.454,3.555,2.747C176.916,270.859,179.016,274.333,175.461,278.938L175.461,278.938z"/>
	<path fill="#F4CB20" d="M138.947,281.765c0,0-7.917,0.404-7.432-6.301c0.565-3.635,0.889-3.958,0.485-4.524
		c0,0,1.131,1.292,4.039,1.939C138.543,273.606,141.371,276.514,138.947,281.765L138.947,281.765z"/>
	<path fill="#F4CB20" d="M115.601,266.739c0,0-6.301,0.323-5.978-5.009c0.404-2.908,0.646-3.15,0.404-3.554
		c0,0,0.889,1.05,3.231,1.535C115.278,260.196,117.54,262.539,115.601,266.739L115.601,266.739z"/>
	<path fill="#F4CB20" d="M165.525,297.76c0,0,3.635,6.382-2.02,8.805c-3.231,1.131-3.635,0.97-3.877,1.454
		c0,0,0.565-1.454-0.081-4.201C158.981,301.476,160.193,297.922,165.525,297.76L165.525,297.76z"/>
	<path fill="#A4BE3A" d="M214.237,276.11c0,0,4.686-6.948,10.017-2.343c2.747,2.747,2.828,3.231,3.474,3.231
		c0,0-1.777,0.161-4.201,2.181C221.427,281.038,217.146,281.604,214.237,276.11L214.237,276.11z"/>
	<path fill="#A4BE3A" d="M195.819,249.532c0,0,4.686-6.947,10.017-2.342c2.747,2.747,2.828,3.231,3.474,3.231
		c0,0-1.777,0.162-4.201,2.181C203.009,254.46,198.727,255.026,195.819,249.532L195.819,249.532z"/>
	<path fill="#A4BE3A" d="M110.108,322.723c0,0-7.271-4.201-2.989-9.856c2.585-2.908,3.07-3.069,3.07-3.635
		c0,0,0.323,1.777,2.423,4.12C114.551,315.29,115.358,319.571,110.108,322.723L110.108,322.723z"/>
	<path fill="#A4BE3A" d="M76.825,320.541c0,0-3.07-7.755,3.796-9.613c3.878-0.727,4.282-0.484,4.686-0.97
		c0,0-0.889,1.535-0.565,4.767C84.903,317.391,82.964,321.268,76.825,320.541L76.825,320.541z"/>
	<path fill="#A4BE3A" d="M156.316,234.426c0,0,4.685-6.947,10.017-2.343c2.747,2.747,2.827,3.231,3.474,3.231
		c0,0-1.777,0.162-4.201,2.181C163.425,239.273,159.143,239.838,156.316,234.426L156.316,234.426z"/>
	<path fill="#A4BE3A" d="M140.482,250.421c0,0,9.128-5.17,12.521,3.07c1.535,4.686,1.373,5.17,2.02,5.574
		c0,0-2.101-0.808-5.978,0.081C145.652,259.873,140.563,258.096,140.482,250.421L140.482,250.421z"/>
	<path fill="#A4BE3A" d="M97.586,229.256c0,0,9.128-5.17,12.521,3.07c1.535,4.686,1.373,5.17,2.02,5.574
		c0,0-2.101-0.808-5.978,0.081C102.837,238.788,97.748,236.93,97.586,229.256L97.586,229.256z"/>
	<path fill="#A4BE3A" d="M87.408,280.392c0,0-6.867-6.624-0.565-11.713c3.635-2.504,4.201-2.504,4.362-3.231
		c0,0-0.162,2.02,1.616,5.17C94.274,273.363,94.032,278.292,87.408,280.392L87.408,280.392z"/>
	<path fill="#A4BE3A" d="M56.225,280.392c0,0-6.867-6.624-0.565-11.713c3.635-2.504,4.201-2.504,4.362-3.231
		c0,0-0.162,2.02,1.616,5.17C63.092,273.444,62.85,278.292,56.225,280.392L56.225,280.392z"/>
	<path fill="#A4BE3A" d="M61.799,229.256c0,0,9.128-5.17,12.521,3.07c1.535,4.686,1.373,5.17,2.02,5.574
		c0,0-2.101-0.808-5.978,0.081C67.05,238.788,61.961,236.93,61.799,229.256L61.799,229.256z"/>
	<path fill="#A4BE3A" d="M131.273,223.843c0,0,2.262-8.078,8.805-5.413c3.474,1.777,3.716,2.181,4.362,2.02
		c0,0-1.615,0.728-3.312,3.393C139.594,226.186,135.716,228.044,131.273,223.843L131.273,223.843z"/>
	<path fill="#A4BE3A" d="M189.518,205.344c0,0,7.028-4.523,10.098,1.858c1.454,3.635,1.292,4.12,1.858,4.362
		c0,0-1.696-0.565-4.766,0.323C194.123,212.695,189.922,211.483,189.518,205.344L189.518,205.344z"/>
	<path fill="#A4BE3A" d="M151.469,197.023c0,0,7.998-5.089,11.391,2.1c1.616,4.12,1.454,4.605,2.1,4.928
		c0,0-1.938-0.646-5.332,0.323C156.639,205.344,151.954,203.971,151.469,197.023L151.469,197.023z"/>
	<path fill="#A4BE3A" d="M215.691,302.526c0,0,7.675,0.485,6.463,6.866c-0.889,3.474-1.292,3.717-0.97,4.201
		c0,0-0.969-1.293-3.635-2.343C215.045,310.443,212.703,307.293,215.691,302.526L215.691,302.526z"/>
	<path fill="#A4BE3A" d="M186.933,316.583c0,0,7.674,0.484,6.463,6.866c-0.889,3.474-1.292,3.716-0.97,4.201
		c0,0-0.969-1.293-3.635-2.343C186.367,324.499,183.944,321.349,186.933,316.583L186.933,316.583z"/>
	<path fill="#A4BE3A" d="M142.34,333.951c0,0,6.301,0.404,5.251,5.654c-0.727,2.828-1.05,3.07-0.808,3.474
		c0,0-0.808-1.131-2.989-1.938C141.855,340.414,139.917,337.828,142.34,333.951L142.34,333.951z"/>
	<path fill="#A4BE3A" d="M186.367,252.845c0,0,7.674,0.484,6.463,6.866c-0.889,3.474-1.293,3.716-0.97,4.201
		c0,0-0.969-1.293-3.635-2.343C185.721,260.761,183.378,257.611,186.367,252.845L186.367,252.845z"/>
	<path fill="#A4BE3A" d="M117.944,250.906c0,0,8.401-0.808,8.24,6.382c-0.404,3.958-0.727,4.282-0.323,4.766
		c0,0-1.292-1.292-4.443-1.938C118.671,259.63,115.439,256.561,117.944,250.906L117.944,250.906z"/>
	<path fill="#A4BE3A" d="M88.539,202.678c0,0,3.474,5.978-1.858,8.321c-3.07,1.05-3.393,0.969-3.635,1.373
		c0,0,0.484-1.373-0.162-3.958C82.318,206.232,83.449,202.84,88.539,202.678L88.539,202.678z"/>
	<path fill="#A4BE3A" d="M179.743,282.088c0,0,7.674,0.485,6.462,6.867c-0.889,3.474-1.292,3.716-0.969,4.201
		c0,0-0.97-1.292-3.635-2.343C179.177,290.005,176.754,286.854,179.743,282.088L179.743,282.088z"/>
	<path fill="#A4BE3A" d="M175.542,181.755c0,0,7.675,0.484,6.463,6.866c-0.889,3.474-1.292,3.716-0.969,4.201
		c0,0-0.97-1.292-3.635-2.342C174.977,189.672,172.553,186.521,175.542,181.755L175.542,181.755z"/>
	<path fill="#67943F" d="M246.309,323.854c0,0-6.221,5.008-1.374,9.693c2.828,2.424,3.312,2.424,3.393,2.989
		c0,0,0-1.696,1.696-4.201C251.56,330.235,251.721,326.115,246.309,323.854L246.309,323.854z"/>
	<path fill="#67943F" d="M166.575,318.926c0,0,5.816-2.182,3.393-6.867c-1.535-2.504-1.858-2.585-1.777-3.069
		c0,0-0.404,1.292-2.262,2.666C164.232,312.866,163.102,315.937,166.575,318.926L166.575,318.926z"/>
	<path fill="#09A6E0" d="M254.306,321.753c0,0-1.212,7.836,5.493,8.078c3.716-0.161,4.039-0.404,4.524-0.081
		c0,0-1.131-1.292-1.535-4.281C262.384,322.965,259.799,319.814,254.306,321.753L254.306,321.753z"/>
	<path fill="#09A6E0" d="M223.124,299.053c0,0,3.555,6.866,8.967,3.15c2.827-2.262,2.908-2.666,3.474-2.666
		c0,0-1.616-0.323-3.635-2.423C230.152,295.256,226.274,294.367,223.124,299.053L223.124,299.053z"/>
	<path fill="#67943F" d="M256.083,313.836c0,0,3.231-8.159,9.775-4.604c3.474,2.181,3.635,2.666,4.282,2.585
		c0,0-1.777,0.565-3.878,3.15C264.485,317.229,260.203,318.764,256.083,313.836L256.083,313.836z"/>
	<path fill="#A4BE3A" d="M258.022,340.656c0,0,3.231-4.281-0.727-6.544c-2.262-1.05-2.585-1.05-2.747-1.373
		c0,0,0.323,1.131-0.404,2.989C253.579,337.425,254.145,340.091,258.022,340.656L258.022,340.656z"/>
	<path fill="#67943F" d="M160.355,290.247c0,0,6.624,0.081,6.059-5.412c-0.565-3.07-0.808-3.312-0.565-3.716
		c0,0-0.889,1.05-3.312,1.777C160.436,283.381,158.174,285.966,160.355,290.247L160.355,290.247z"/>
	<path fill="#67943F" d="M209.391,286.612c0,0,5.008-7.189-1.535-10.663c-3.716-1.697-4.201-1.535-4.524-2.181
		c0,0,0.485,1.777-0.565,4.928C201.958,281.442,203.009,285.885,209.391,286.612L209.391,286.612z"/>
	<path fill="#09A6E0" d="M114.309,301.314c0,0-7.594,0.404-7.19-6.059c0.485-3.555,0.808-3.797,0.485-4.282
		c0,0,1.131,1.212,3.877,1.939C113.904,293.398,116.651,296.225,114.309,301.314L114.309,301.314z"/>
	<path fill="#09A6E0" d="M136.766,342.999c0,0-7.594,0.403-7.189-6.059c0.484-3.555,0.808-3.797,0.484-4.282
		c0,0,1.131,1.212,3.878,1.939C136.443,335.082,139.19,337.909,136.766,342.999L136.766,342.999z"/>
	<path fill="#09A6E0" d="M105.584,334.193c0,0-7.594,0.404-7.19-6.059c0.485-3.555,0.808-3.797,0.485-4.281
		c0,0,1.131,1.211,3.877,1.938C105.261,326.276,108.007,329.185,105.584,334.193L105.584,334.193z"/>
	<path fill="#0C5691" d="M119.075,292.59c0,0,4.443-4.686,7.917-0.484c1.777,2.423,1.777,2.827,2.181,2.908
		c0,0-1.373-0.081-3.474,1.131C123.841,297.195,120.529,297.114,119.075,292.59L119.075,292.59z"/>
	<path fill="#0C5691" d="M122.71,318.44c0,0,7.028,1.616,4.928,7.271c-1.374,3.07-1.696,3.231-1.535,3.797
		c0,0-0.646-1.373-3.07-2.746C120.933,325.63,119.236,322.399,122.71,318.44L122.71,318.44z"/>
	<path fill="#F4CB20" d="M120.044,315.129c0,0-7.189-3.959-3.07-9.614c2.504-2.908,2.908-2.989,2.908-3.635
		c0,0,0.323,1.697,2.504,3.958C124.245,307.777,125.133,311.897,120.044,315.129L120.044,315.129z"/>
	<path fill="#F4CB20" d="M99.041,319.976c0,0-8.806,1.615-9.29-5.897c0-4.2,0.323-4.523-0.081-5.089c0,0,1.454,1.212,4.847,1.615
		C97.425,310.928,101.06,313.755,99.041,319.976L99.041,319.976z"/>
	<path fill="#F4CB20" d="M61.314,296.063c0,0-10.098,1.939-10.744-6.786c0.081-4.847,0.404-5.251-0.081-5.897
		c0,0,1.696,1.454,5.574,1.858C59.457,285.562,63.657,288.874,61.314,296.063L61.314,296.063z"/>
	<path fill="#F4CB20" d="M76.906,275.949c0,0-8.805,1.616-9.29-5.897c0-4.201,0.323-4.524-0.081-5.089c0,0,1.454,1.212,4.847,1.616
		C75.29,266.901,78.845,269.729,76.906,275.949L76.906,275.949z"/>
	<path fill="#F4CB20" d="M104.695,344.614c0,0-7.109,2.182-8.159-4.039c-0.323-3.474-0.162-3.797-0.565-4.2
		c0,0,1.292,0.888,4.12,0.888C102.514,337.183,105.746,339.283,104.695,344.614L104.695,344.614z"/>
	<path fill="#F4CB20" d="M142.179,329.508c0,0-6.22,4.039-8.967-1.615c-1.292-3.231-1.131-3.555-1.697-3.878
		c0,0,1.535,0.484,4.201-0.323C138.059,323.045,141.694,324.096,142.179,329.508L142.179,329.508z"/>
	<path fill="#67943F" d="M101.625,299.537c0,0-3.877,4.847,0.565,7.594c2.585,1.373,2.908,1.293,3.07,1.696
		c0,0-0.242-1.292,0.565-3.474C106.634,303.496,106.068,300.345,101.625,299.537L101.625,299.537z"/>
	<path fill="#67943F" d="M71.413,324.338c0,0-3.878,4.847,0.565,7.594c2.585,1.373,2.908,1.292,3.07,1.696
		c0,0-0.243-1.293,0.565-3.474C76.421,328.377,75.855,325.146,71.413,324.338L71.413,324.338z"/>
	<path fill="#67943F" d="M125.78,300.264c0,0,1.131,7.674,7.432,5.978c3.393-1.211,3.635-1.535,4.201-1.292
		c0,0-1.454-0.889-2.666-3.554C133.696,299.053,130.384,296.872,125.78,300.264L125.78,300.264z"/>
</g>
<g>
	<path fill="#094063" d="M337.109,224.49c22.135,0,36.918,12.844,36.918,31.99c0,20.034-15.43,33.283-38.534,33.283h-19.388v29.405
		h-13.249V224.49H337.109z M336.705,277.483c14.46,0,24.235-8.482,24.235-21.003c0-11.794-9.775-19.792-24.235-19.792h-20.6v40.795
		H336.705z"/>
	<path fill="#094063" d="M451.256,319.087h-12.845v-5.735c-5.574,4.604-13.087,7.351-21.73,7.351
		c-18.338,0-33.122-15.187-33.122-34.09c0-19.065,14.784-34.252,33.122-34.252c8.644,0,16.156,2.747,21.73,7.351v-5.735h12.845
		V319.087z M438.492,299.214V274.01c-5.009-7.351-12.117-10.421-19.873-10.421c-12.683,0-22.135,10.583-22.135,23.104
		c0,12.279,9.452,22.942,22.135,22.942C426.375,309.635,433.483,306.565,438.492,299.214z"/>
	<path fill="#094063" d="M486.639,263.669c5.979-6.947,14.299-11.148,24.478-11.148v12.117
		c-10.421,0.243-18.661,4.767-24.478,12.845v41.604h-12.845v-65.031h12.845V263.669z"/>
	<path fill="#094063" d="M540.359,302.85v16.318h-12.844v-98.879h12.844v65.677l32.557-31.91h16.317L562.091,281.2l31.586,37.887
		h-16.561l-24.073-28.92L540.359,302.85z"/>
	<path fill="#094063" d="M664.847,291.54l-0.242-0.162v0.162h-52.59c1.777,10.179,9.209,18.338,21.893,18.338
		c7.674,0,13.248-3.07,15.833-8.079h13.814c-3.797,11.552-15.43,18.903-30.052,18.903c-20.357,0-34.091-14.864-34.091-34.09
		c0-19.388,13.814-34.252,34.091-34.252c18.338,0,31.586,13.895,31.748,33.525C665.089,287.824,665.089,289.763,664.847,291.54z
		 M611.934,281.927h40.23c-1.293-11.148-8.32-18.5-19.388-18.5C620.981,263.427,613.63,271.505,611.934,281.927z"/>
	<path fill="#094063" d="M695.706,263.669c5.979-6.947,14.299-11.148,24.478-11.148v12.117
		c-10.421,0.243-18.661,4.767-24.478,12.845v41.604h-12.845v-65.031h12.845V263.669z"/>
</g>
<g>
	<path fill="#0C5691" d="M337.674,370.546h-4.847v-23.912l-10.825,17.772h-3.07l-10.906-17.854l0.081,24.074h-4.928V335.89h3.555
		l13.652,22.458l13.652-22.458h3.635V370.546z"/>
	<path fill="#0C5691" d="M369.584,360.448l-0.081-0.081v0.081h-19.227c0.646,3.716,3.393,6.705,7.998,6.705
		c2.828,0,4.847-1.131,5.817-2.989h5.008c-1.374,4.2-5.655,6.947-10.986,6.947c-7.432,0-12.521-5.412-12.521-12.521
		c0-7.108,5.008-12.521,12.521-12.521c6.705,0,11.552,5.09,11.633,12.279C369.665,359.074,369.665,359.802,369.584,360.448z
		 M350.196,356.894h14.703c-0.485-4.039-3.07-6.786-7.109-6.786C353.508,350.107,350.842,353.097,350.196,356.894z"/>
	<path fill="#0C5691" d="M415.55,357.055v13.491h-4.604v-13.168c0-4.523-2.343-7.108-6.302-7.108c-2.343,0-4.686,1.131-6.543,3.958
		c0.242,0.889,0.323,1.938,0.323,2.989v13.49h-4.686V357.54c0-4.524-2.343-7.109-6.301-7.109c-2.181,0-4.443,1.212-6.22,3.797v16.48
		h-4.767v-23.831h4.686v2.1c1.777-1.857,3.878-2.908,7.109-2.908c3.393,0,6.22,1.454,7.998,3.959
		c2.504-2.585,5.17-3.959,9.209-3.959C411.268,345.987,415.55,350.27,415.55,357.055z"/>
	<path fill="#0C5691" d="M447.378,358.671c0,7.189-5.493,12.603-12.602,12.603c-7.271,0-12.684-5.413-12.684-12.603
		s5.493-12.521,12.684-12.521C441.885,346.149,447.378,351.481,447.378,358.671z M442.692,358.671c0-4.604-3.312-8.24-7.916-8.24
		c-4.686,0-7.998,3.636-7.998,8.24s3.312,8.32,7.998,8.32C439.381,366.991,442.692,363.275,442.692,358.671z"/>
	<path fill="#0C5691" d="M458.85,350.27c2.181-2.585,5.251-4.039,8.967-4.039v4.442c-3.797,0.081-6.866,1.696-8.967,4.686v15.269
		h-4.686v-23.831h4.686V350.27z"/>
	<path fill="#0C5691" d="M473.794,337.828c0-1.696,1.293-2.988,3.07-2.988c1.696,0,3.069,1.292,3.069,2.988
		c0,1.697-1.373,2.989-3.069,2.989C475.087,340.817,473.794,339.525,473.794,337.828z M479.126,370.546h-4.604v-23.831h4.604
		V370.546z"/>
	<path fill="#0C5691" d="M511.439,370.546h-4.686v-2.101c-2.02,1.696-4.767,2.666-7.917,2.666c-6.705,0-12.117-5.574-12.117-12.521
		s5.412-12.521,12.117-12.521c3.15,0,5.897,1.051,7.917,2.666v-2.101h4.686V370.546z M506.754,363.194v-9.209
		c-1.858-2.666-4.443-3.797-7.271-3.797c-4.604,0-8.078,3.878-8.078,8.482c0,4.523,3.474,8.401,8.078,8.401
		C502.311,367.072,504.977,365.941,506.754,363.194z"/>
	<path fill="#0C5691" d="M524.688,370.546h-4.686v-36.19h4.686V370.546z"/>
	<path fill="#0C5691" d="M571.704,370.546h-23.67V335.89h4.847v30.294h18.823V370.546z"/>
	<path fill="#0C5691" d="M577.601,337.828c0-1.696,1.293-2.988,3.07-2.988c1.696,0,3.069,1.292,3.069,2.988
		c0,1.697-1.373,2.989-3.069,2.989C578.894,340.817,577.601,339.525,577.601,337.828z M583.014,370.546h-4.604v-23.831h4.604
		V370.546z"/>
	<path fill="#0C5691" d="M616.861,358.59c0,6.947-5.412,12.521-12.198,12.521c-3.231,0-5.896-1.05-7.917-2.666v2.101h-4.685v-36.19
		h4.685v14.46c2.021-1.696,4.767-2.666,7.917-2.666C611.449,346.149,616.861,351.643,616.861,358.59z M612.176,358.59
		c0-4.523-3.554-8.401-8.158-8.401c-2.828,0-5.413,1.212-7.271,3.878v9.128c1.858,2.666,4.443,3.878,7.271,3.878
		C608.702,367.072,612.176,363.114,612.176,358.59z"/>
	<path fill="#0C5691" d="M628.333,350.27c2.181-2.585,5.251-4.039,8.967-4.039v4.442c-3.797,0.081-6.866,1.696-8.967,4.686v15.269
		h-4.686v-23.831h4.686V350.27z"/>
	<path fill="#0C5691" d="M666.059,370.546h-4.686v-2.101c-2.02,1.696-4.766,2.666-7.916,2.666c-6.705,0-12.118-5.574-12.118-12.521
		s5.413-12.521,12.118-12.521c3.15,0,5.896,1.051,7.916,2.666v-2.101h4.686V370.546z M661.373,363.194v-9.209
		c-1.857-2.666-4.443-3.797-7.271-3.797c-4.604,0-8.078,3.878-8.078,8.482c0,4.523,3.474,8.401,8.078,8.401
		C656.93,367.072,659.516,365.941,661.373,363.194z"/>
	<path fill="#0C5691" d="M679.227,350.27c2.181-2.585,5.251-4.039,8.967-4.039v4.442c-3.797,0.081-6.866,1.696-8.967,4.686v15.269
		h-4.686v-23.831h4.686V350.27z"/>
	<path fill="#0C5691" d="M703.542,382.825h-4.928l5.009-11.31l-12.037-24.882h5.009l9.371,19.389l8.644-19.389h4.928
		L703.542,382.825z"/>
</g>
<g>
	<path fill="#094063" d="M307.946,407.464c0.242,0,0.323,0.161,0.323,0.484c0,0.404-0.161,0.809-0.565,1.293
		c-0.565,0.646-1.292,0.97-2.181,0.97c-1.05,0-1.777-0.404-2.181-1.293c-0.162-0.323-0.242-0.646-0.242-1.05
		c0-0.404,0.081-0.889,0.242-1.454c0.162-0.485,0.323-1.051,0.565-1.616c0.243-0.565,0.485-1.131,0.727-1.777l0.727-1.696
		c0.485-1.292,0.808-2.101,0.808-2.504c0-0.404-0.081-0.646-0.162-0.808c-0.081-0.162-0.162-0.243-0.242-0.323l-0.243-0.162
		c-0.081-0.081-0.162-0.161-0.162-0.323c0-0.161,0.081-0.323,0.162-0.484c0.162-0.161,0.243-0.242,0.485-0.404
		c0.404-0.242,0.889-0.323,1.454-0.323c1.292,0,2.02,0.323,2.02,1.051c0,0.808-0.242,1.777-0.646,2.827
		c-0.404,1.051-0.808,1.858-1.05,2.505l-0.808,1.857c-0.565,1.373-0.889,2.343-0.889,2.989c0,0.403,0.162,0.565,0.566,0.565
		c0.404,0,0.646-0.081,0.888-0.162C307.704,407.545,307.865,407.464,307.946,407.464z M310.773,392.762
		c-0.162,0.242-0.404,0.403-0.646,0.484c-0.243,0.161-0.485,0.242-0.808,0.242c-0.242,0-0.565,0-0.808-0.161
		c-0.242-0.081-0.485-0.323-0.646-0.485c-0.404-0.484-0.565-0.889-0.565-1.373s0.081-0.808,0.242-1.05
		c0.162-0.243,0.323-0.404,0.566-0.565c0.404-0.243,0.808-0.404,1.211-0.404c0.404,0,0.646,0,0.889,0.081
		c0.242,0.08,0.404,0.161,0.565,0.242c0.404,0.323,0.646,0.646,0.646,1.131c0,0.404-0.081,0.808-0.162,1.05
		C311.177,392.195,310.935,392.519,310.773,392.762z"/>
	<path fill="#094063" d="M321.195,398.497c-0.243,0-0.646,0.242-1.212,0.808s-0.969,1.05-1.374,1.454l-1.131,1.373l-2.262,2.828
		c-0.485,0.969-0.97,1.857-1.212,2.504l-0.727,1.535c-0.162,0.403-0.323,0.646-0.485,0.808c-0.162,0.161-0.323,0.242-0.565,0.242
		c-0.242,0-0.484-0.081-0.727-0.161c-0.242-0.081-0.404-0.162-0.565-0.323c-0.323-0.323-0.485-0.565-0.485-0.97
		c0-0.161,0.081-0.403,0.323-0.808l0.485-1.131c0.162-0.323,0.323-0.728,0.565-1.212l0.727-1.858c1.05-2.665,1.616-4.362,1.616-5.17
		c0-0.403-0.162-0.727-0.404-0.889l-0.243-0.161c-0.081-0.081-0.162-0.162-0.162-0.323c0-0.162,0.081-0.323,0.162-0.484
		c0.162-0.162,0.243-0.243,0.485-0.404c0.404-0.242,0.808-0.323,1.212-0.323c0.404,0,0.727,0.081,0.969,0.161
		c0.242,0.081,0.404,0.243,0.565,0.404c0.323,0.323,0.485,0.646,0.485,0.97s-0.081,0.727-0.162,1.05s-0.162,0.728-0.323,1.051
		c-0.162,0.322-0.242,0.727-0.404,1.05s-0.242,0.646-0.404,0.889l-0.243,0.565c-0.081,0.161-0.081,0.161-0.081,0.161
		c0.969-1.373,1.696-2.262,2.02-2.665l0.969-1.132c0.727-0.808,1.212-1.373,1.616-1.615c0.808-0.565,1.454-0.808,1.939-0.808
		s0.889,0.08,1.131,0.161c0.323,0.081,0.565,0.323,0.808,0.485c0.484,0.484,0.727,1.05,0.727,1.776c0,0.728-0.162,1.454-0.485,2.263
		c-0.323,0.808-0.646,1.373-0.808,1.857c-0.242,0.485-0.484,0.97-0.646,1.454c-0.646,1.535-1.05,2.585-1.05,3.312
		c0,0.323,0.242,0.484,0.727,0.484c0.404,0,0.727-0.081,1.05-0.242s0.485-0.242,0.565-0.242c0.162,0,0.323,0.081,0.323,0.323
		c0,0.808-0.404,1.454-1.212,2.02c-0.565,0.403-1.05,0.565-1.535,0.565c-0.485,0-0.808-0.081-1.131-0.162
		c-0.323-0.08-0.565-0.242-0.808-0.484c-0.565-0.484-0.808-1.131-0.808-2.02c0-1.05,0.323-2.343,0.969-3.958
		c0.485-1.051,0.808-1.777,1.05-2.182l0.484-0.969c0.243-0.566,0.404-1.051,0.404-1.374S321.679,398.497,321.195,398.497z"/>
	<path fill="#094063" d="M325.476,412.957c0-0.161,0.162-0.565,0.404-1.131c0.323-0.565,0.565-1.293,0.97-2.182
		c0.323-0.888,0.646-1.776,0.969-2.746s0.646-1.938,0.969-3.069l1.05-3.555l-1.374,0.403c-0.323,0-0.646-0.161-0.888-0.565
		c-0.081-0.08-0.081-0.242-0.081-0.323c0-0.08,0.081-0.322,0.323-0.484c0.242-0.161,0.485-0.323,0.808-0.484
		c0.646-0.323,1.292-0.565,1.939-0.728l0.162-0.403c0.242-0.728,0.485-1.535,0.727-2.343c0.242-0.809,0.485-1.616,0.727-2.424
		s0.565-1.535,0.808-2.181c0.323-0.728,0.727-1.293,1.131-1.858c0.969-1.131,2.1-1.696,3.554-1.696c1.05,0,1.858,0.242,2.504,0.808
		c0.646,0.565,0.889,1.293,0.889,2.262c0,0.97-0.323,1.858-0.889,2.585c-0.485,0.646-1.05,0.889-1.616,0.889
		c-0.727,0-1.212-0.323-1.454-0.969c-0.081-0.162-0.081-0.323-0.081-0.404c0-0.161,0.161-0.404,0.404-0.565
		c0.485-0.404,0.808-0.889,1.05-1.535c0.081-0.161,0.081-0.403,0.081-0.565c0-0.727-0.323-1.131-0.889-1.131
		c-0.808,0-1.535,0.889-2.181,2.666c-0.162,0.565-0.404,1.131-0.565,1.857l-1.292,4.362c0.808-0.161,1.454-0.161,1.777-0.161
		c0.404,0,0.727,0.081,0.969,0.161c0.323,0.081,0.565,0.243,0.808,0.323c0.566,0.323,0.808,0.809,0.808,1.293
		s-0.242,0.808-0.727,0.808l-1.696-0.081c-0.97,0-1.777,0.081-2.585,0.162l-1.131,3.958c-0.727,2.666-1.292,4.604-1.777,5.816
		c-0.484,1.212-0.889,2.262-1.373,3.07c-0.404,0.808-1.05,1.131-1.858,1.131C326.042,413.927,325.476,413.522,325.476,412.957z"/>
	<path fill="#094063" d="M339.209,409.079c-0.404-0.322-0.646-0.808-0.889-1.373c-0.243-0.565-0.323-1.212-0.323-1.938
		c0-0.728,0.081-1.535,0.242-2.343s0.485-1.535,0.808-2.262c0.323-0.728,0.808-1.374,1.292-2.02c0.485-0.646,1.05-1.212,1.696-1.616
		c1.292-1.05,2.666-1.535,4.12-1.535c1.858,0,3.15,0.809,3.797,2.424c0.484,1.212,0.484,2.585,0.081,4.281
		c-0.404,1.535-1.05,2.989-2.1,4.282c-0.97,1.292-2.181,2.181-3.555,2.746c-0.727,0.242-1.374,0.404-2.02,0.404
		c-0.646,0-1.292-0.081-1.777-0.242C340.017,409.726,339.532,409.402,339.209,409.079z M341.794,402.455
		c-0.243,0.646-0.485,1.374-0.646,2.101c-0.162,0.728-0.242,1.373-0.242,2.02s0.081,1.131,0.323,1.454
		c0.162,0.323,0.484,0.565,0.889,0.565c0.404,0,0.808-0.161,1.211-0.403c0.404-0.323,0.808-0.646,1.212-1.132
		c0.404-0.484,0.727-1.05,1.05-1.615c0.323-0.646,0.646-1.293,0.889-1.938c0.565-1.454,0.808-2.747,0.808-3.878
		c0-0.97-0.242-1.615-0.646-1.938c-0.162-0.081-0.404-0.162-0.646-0.162c-0.323,0-0.646,0.162-1.05,0.404s-0.727,0.646-1.131,1.05
		c-0.404,0.485-0.727,0.97-1.131,1.616C342.36,401.163,342.037,401.809,341.794,402.455z"/>
	<path fill="#094063" d="M352.215,409.645c-0.162-0.161-0.323-0.322-0.404-0.484c-0.081-0.161-0.162-0.323-0.162-0.403
		c0-0.162,0-0.243,0.081-0.485c0.081-0.161,0.162-0.403,0.243-0.646c1.858-4.523,2.747-7.593,2.747-9.128
		c0-0.404-0.162-0.728-0.485-0.889l-0.242-0.162c-0.081-0.08-0.162-0.161-0.162-0.322c0-0.162,0.081-0.323,0.162-0.485
		c0.081-0.161,0.242-0.242,0.485-0.403c0.404-0.243,0.808-0.323,1.211-0.323s0.727,0.08,0.97,0.161
		c0.242,0.081,0.404,0.242,0.565,0.404c0.323,0.323,0.484,0.646,0.484,1.05c0,0.323,0,0.728-0.162,1.131
		c-0.081,0.404-0.161,0.728-0.323,1.131c-0.081,0.323-0.243,0.728-0.323,1.051s-0.162,0.565-0.242,0.727
		c-0.081,0.323-0.081,0.485-0.081,0.565c0.243-0.161,0.323-0.403,0.404-0.565l0.565-0.969c1.212-2.101,2.343-3.555,3.474-4.201
		c0.323-0.161,0.727-0.323,1.211-0.323c0.485,0,0.808,0.162,1.131,0.484c0.243,0.323,0.404,0.646,0.404,1.051
		c0,0.403,0,0.727-0.081,0.97c-0.081,0.242-0.162,0.484-0.323,0.727c-0.323,0.484-0.646,0.728-1.05,0.728
		c-0.081,0-0.243-0.081-0.323-0.162l-0.323-0.242c-0.323-0.242-0.565-0.404-0.889-0.404c-0.242,0-0.646,0.162-0.969,0.565
		c-0.404,0.323-0.808,0.809-1.212,1.374c-1.454,1.857-2.585,4.039-3.474,6.382l-0.565,1.534c-0.162,0.404-0.323,0.646-0.404,0.809
		c-0.081,0.161-0.323,0.242-0.485,0.242s-0.485-0.081-0.727-0.162C352.619,409.888,352.458,409.807,352.215,409.645z"/>
	<path fill="#094063" d="M373.785,398.497c-0.485,0-1.454,0.727-2.908,2.262c-1.05,1.212-1.777,2.101-2.262,2.666l-1.211,1.535
		c-0.485,0.969-0.97,1.857-1.212,2.504l-0.727,1.535c-0.162,0.403-0.323,0.646-0.485,0.808c-0.162,0.161-0.323,0.242-0.565,0.242
		c-0.242,0-0.484-0.081-0.727-0.161c-0.242-0.081-0.404-0.162-0.565-0.323c-0.323-0.323-0.485-0.565-0.485-0.97
		c0-0.161,0.081-0.404,0.323-0.808l0.485-1.131c0.162-0.323,0.323-0.728,0.565-1.212l0.727-1.858c1.05-2.666,1.616-4.362,1.616-5.17
		c0-0.404-0.162-0.727-0.404-0.889l-0.243-0.161c-0.081-0.081-0.162-0.162-0.162-0.323c0-0.162,0.081-0.323,0.162-0.485
		c0.162-0.161,0.243-0.242,0.485-0.403c0.404-0.242,0.808-0.323,1.212-0.323s0.727,0.081,0.969,0.161
		c0.242,0.081,0.404,0.243,0.646,0.404c0.323,0.323,0.484,0.646,0.484,0.97s-0.081,0.727-0.162,1.05
		c-0.081,0.323-0.242,0.728-0.323,1.051c-0.162,0.322-0.243,0.727-0.404,1.05c-0.323,0.808-0.565,1.292-0.646,1.454
		c-0.081,0.161-0.081,0.242-0.081,0.161c1.616-2.181,2.666-3.393,2.989-3.797c0.727-0.808,1.211-1.373,1.616-1.615
		c0.727-0.565,1.373-0.808,2.02-0.808c0.646,0,1.131,0.161,1.535,0.565c0.404,0.403,0.565,0.889,0.565,1.534
		c0,0.566-0.162,1.212-0.404,2.021c-0.323,0.808-0.484,1.292-0.565,1.615l2.02-2.666l1.131-1.292
		c0.646-0.728,1.293-1.212,1.777-1.454c0.485-0.243,0.889-0.323,1.212-0.323s0.646,0.08,0.969,0.161s0.565,0.323,0.808,0.485
		c0.484,0.403,0.727,1.05,0.727,1.776c0,0.728-0.162,1.454-0.485,2.182c-0.323,0.727-0.646,1.373-0.889,1.858
		c-0.242,0.484-0.485,0.969-0.727,1.453c-0.646,1.455-0.969,2.505-0.969,3.231c0,0.485,0.162,0.728,0.565,0.728
		s0.727-0.081,1.05-0.242c0.323-0.162,0.484-0.242,0.565-0.242c0.162,0,0.323,0.08,0.323,0.322c0,0.809-0.404,1.454-1.211,2.02
		c-0.565,0.404-1.05,0.566-1.535,0.566c-0.484,0-0.808-0.081-1.131-0.162c-0.242-0.081-0.565-0.242-0.727-0.484
		c-0.484-0.485-0.727-1.212-0.727-1.939c0-0.808,0.081-1.534,0.323-2.181c0.162-0.646,0.404-1.293,0.727-1.938
		c0.242-0.646,0.565-1.212,0.808-1.697c0.243-0.484,0.485-0.969,0.646-1.211c0.323-0.646,0.404-1.131,0.404-1.374
		c0-0.323-0.162-0.565-0.565-0.565c-0.485,0-1.374,0.809-2.666,2.424c-0.969,1.293-1.616,2.181-2.02,2.746l-0.969,1.374
		c-0.485,0.969-0.889,1.857-1.212,2.504l-0.727,1.535c-0.162,0.403-0.323,0.646-0.484,0.808c-0.162,0.162-0.323,0.242-0.566,0.242
		c-0.242,0-0.484,0-0.646-0.08c-0.242-0.081-0.404-0.162-0.565-0.323c-0.323-0.243-0.565-0.565-0.565-0.809
		c0-0.322,0.081-0.727,0.323-1.211c0.162-0.485,0.404-1.051,0.727-1.697l1.939-4.039c0.646-1.454,1.05-2.423,1.05-2.827
		C374.35,398.739,374.108,398.497,373.785,398.497z M375.077,402.375L375.077,402.375L375.077,402.375
		C375.077,402.294,375.077,402.294,375.077,402.375z"/>
	<path fill="#094063" d="M396.646,406.414c0,0.808,0.323,1.211,0.889,1.211c0.403,0,0.727-0.08,1.05-0.161
		c0.242-0.161,0.484-0.161,0.565-0.161c0.162,0,0.323,0.08,0.323,0.322c0,0.809-0.404,1.454-1.212,2.02
		c-0.889,0.566-1.777,0.728-2.666,0.404c-0.565-0.242-1.05-0.646-1.292-1.373c-0.162-0.323-0.243-0.646-0.243-0.97
		c0-0.484,0.081-0.97,0.162-1.454c-0.808,1.696-1.858,2.908-3.15,3.555c-0.485,0.242-1.05,0.404-1.616,0.404
		s-1.05-0.081-1.454-0.323c-0.404-0.243-0.727-0.565-1.05-0.97c-0.565-0.889-0.889-1.938-0.808-3.231
		c0.081-1.615,0.565-3.15,1.454-4.767c0.808-1.453,1.858-2.665,3.15-3.554c1.292-0.97,2.424-1.374,3.555-1.374
		s1.938,0.485,2.666,1.535c0.646-0.97,1.212-1.535,1.615-1.535c0.484,0,0.889,0.081,1.131,0.323c0.485,0.323,0.646,0.646,0.565,0.97
		c-2.262,4.686-3.474,7.513-3.474,8.725C396.646,406.01,396.646,406.171,396.646,406.414z M389.133,406.414
		c0,1.05,0.323,1.615,1.05,1.615c0.565,0,1.212-0.484,1.939-1.373c1.131-1.293,2.181-3.15,2.989-5.413
		c0.242-0.727,0.485-1.373,0.727-2.1c0-0.646-0.323-1.051-0.808-1.374c-0.162-0.08-0.404-0.161-0.727-0.161
		c-0.323,0-0.727,0.081-1.131,0.323c-0.404,0.242-0.808,0.565-1.211,0.969c-0.404,0.404-0.808,0.889-1.131,1.454
		c-0.323,0.565-0.646,1.132-0.889,1.777C389.376,403.667,389.133,405.04,389.133,406.414z"/>
	<path fill="#094063" d="M409.087,406.414c0.242,0,0.404,0.161,0.404,0.565c0,0.323-0.081,0.565-0.243,0.889
		c-0.242,0.565-0.727,1.05-1.454,1.454c-0.808,0.565-1.696,0.808-2.504,0.808c-1.454,0-2.343-0.646-2.747-1.938
		c-0.484-1.535,0.243-4.848,2.101-9.856c-1.05-0.08-1.615-0.242-1.696-0.565c0-0.08-0.081-0.161-0.081-0.242
		s0.081-0.242,0.162-0.323c0.081-0.161,0.161-0.242,0.323-0.403c0.323-0.242,0.646-0.404,0.969-0.404h1.051
		c0.969-2.262,1.696-3.555,2.101-3.878c0.161-0.161,0.403-0.242,0.646-0.242s0.485,0,0.646,0.081
		c0.162,0.081,0.323,0.161,0.404,0.242c0.323,0.242,0.403,0.565,0.403,0.889c0,0.162-0.08,0.404-0.161,0.646l-0.97,2.181h0.323
		c0.565,0,1.05,0,1.373,0h0.809c0.161,0,0.403,0,0.646,0s0.404,0.081,0.404,0.323c0,1.212-1.373,1.777-4.201,1.777h-0.08
		l-0.889,2.424c-1.051,2.827-1.535,4.766-1.535,5.897c0,0.322,0.081,0.565,0.242,0.727c0.162,0.161,0.404,0.242,0.808,0.242
		c0.404,0,0.728-0.081,1.051-0.242s0.646-0.323,0.889-0.484c0.242-0.162,0.484-0.323,0.646-0.485
		C409.087,406.333,409.006,406.414,409.087,406.414z"/>
	<path fill="#094063" d="M415.711,407.464c0.242,0,0.323,0.161,0.323,0.484c0,0.404-0.161,0.809-0.565,1.293
		c-0.565,0.646-1.293,0.97-2.182,0.97c-1.05,0-1.776-0.404-2.181-1.293c-0.161-0.323-0.242-0.646-0.242-1.05
		c0-0.404,0.081-0.889,0.242-1.454c0.161-0.485,0.323-1.051,0.565-1.616s0.484-1.131,0.728-1.777l0.727-1.696
		c0.484-1.292,0.808-2.101,0.808-2.504c0-0.404-0.08-0.646-0.161-0.808c-0.081-0.162-0.162-0.243-0.242-0.323l-0.243-0.162
		c-0.08-0.081-0.161-0.161-0.161-0.323c0-0.161,0.081-0.323,0.161-0.484c0.162-0.161,0.243-0.242,0.485-0.404
		c0.403-0.242,0.889-0.323,1.454-0.323c1.292,0,2.02,0.323,2.02,1.051c0,0.808-0.242,1.777-0.646,2.827
		c-0.404,1.051-0.808,1.858-1.05,2.505l-0.808,1.857c-0.566,1.373-0.889,2.343-0.889,2.989c0,0.403,0.161,0.565,0.565,0.565
		c0.403,0,0.646-0.081,0.889-0.162C415.55,407.545,415.63,407.464,415.711,407.464z M418.538,392.762
		c-0.161,0.242-0.403,0.403-0.646,0.484c-0.242,0.161-0.485,0.242-0.809,0.242c-0.242,0-0.565,0-0.808-0.161
		c-0.242-0.081-0.484-0.323-0.646-0.485c-0.403-0.484-0.565-0.889-0.565-1.373s0.081-0.808,0.243-1.05
		c0.161-0.243,0.322-0.404,0.565-0.565c0.403-0.243,0.808-0.404,1.211-0.404c0.404,0,0.646,0,0.889,0.081
		c0.243,0.08,0.404,0.161,0.565,0.242c0.404,0.323,0.646,0.646,0.646,1.131c0,0.404-0.081,0.808-0.161,1.05
		C418.942,392.195,418.7,392.519,418.538,392.762z"/>
	<path fill="#094063" d="M420.396,409.079c-0.404-0.322-0.646-0.808-0.889-1.373s-0.323-1.212-0.323-1.938
		c0-0.728,0.081-1.535,0.242-2.343c0.162-0.808,0.485-1.535,0.809-2.262c0.323-0.728,0.808-1.374,1.292-2.02
		c0.484-0.646,1.051-1.212,1.696-1.616c1.293-1.05,2.666-1.535,4.12-1.535c1.858,0,3.15,0.809,3.797,2.424
		c0.484,1.212,0.484,2.585,0.081,4.281c-0.404,1.535-1.051,2.989-2.101,4.282c-0.97,1.292-2.182,2.181-3.555,2.746
		c-0.727,0.242-1.373,0.404-2.02,0.404s-1.292-0.081-1.777-0.242C421.204,409.726,420.801,409.402,420.396,409.079z
		 M422.981,402.455c-0.242,0.646-0.484,1.374-0.646,2.101c-0.161,0.728-0.242,1.373-0.242,2.02s0.081,1.131,0.323,1.454
		c0.162,0.323,0.484,0.565,0.889,0.565s0.808-0.161,1.212-0.403c0.403-0.323,0.808-0.646,1.212-1.132
		c0.403-0.484,0.727-1.05,1.05-1.615c0.323-0.646,0.646-1.293,0.889-1.938c0.565-1.454,0.808-2.747,0.808-3.878
		c0-0.97-0.242-1.615-0.646-1.938c-0.161-0.081-0.403-0.162-0.646-0.162c-0.323,0-0.646,0.162-1.051,0.404
		c-0.403,0.242-0.727,0.646-1.131,1.05c-0.403,0.485-0.727,0.97-1.131,1.616C423.628,401.163,423.305,401.809,422.981,402.455z"/>
	<path fill="#094063" d="M443.258,398.497c-0.242,0-0.646,0.242-1.211,0.808s-0.97,1.05-1.374,1.454l-1.131,1.373l-2.262,2.828
		c-0.565,0.969-0.97,1.857-1.212,2.504l-0.727,1.535c-0.162,0.403-0.323,0.646-0.485,0.808c-0.161,0.161-0.323,0.242-0.565,0.242
		s-0.484-0.081-0.727-0.161c-0.242-0.081-0.404-0.162-0.565-0.323c-0.323-0.323-0.485-0.565-0.485-0.97
		c0-0.161,0.081-0.403,0.323-0.808l0.485-1.131c0.161-0.323,0.322-0.728,0.565-1.212l0.727-1.858
		c1.051-2.665,1.616-4.362,1.616-5.17c0-0.403-0.162-0.727-0.404-0.889l-0.242-0.161c-0.081-0.081-0.162-0.162-0.162-0.323
		c0-0.162,0.081-0.323,0.162-0.484c0.161-0.162,0.242-0.243,0.484-0.404c0.404-0.242,0.808-0.323,1.212-0.323
		s0.728,0.081,0.97,0.161c0.242,0.081,0.403,0.243,0.565,0.404c0.323,0.323,0.484,0.646,0.484,0.97s-0.081,0.727-0.161,1.05
		c-0.081,0.323-0.162,0.728-0.323,1.051c-0.162,0.322-0.242,0.727-0.404,1.05c-0.161,0.323-0.242,0.646-0.404,0.889l-0.242,0.565
		c-0.08,0.161-0.08,0.161-0.08,0.161c0.969-1.373,1.696-2.262,2.02-2.665l0.969-1.132c0.728-0.808,1.212-1.373,1.616-1.615
		c0.808-0.565,1.454-0.808,1.938-0.808s0.889,0.08,1.131,0.161c0.323,0.081,0.565,0.323,0.808,0.485
		c0.485,0.484,0.728,1.05,0.728,1.776c0,0.728-0.161,1.454-0.484,2.263c-0.323,0.808-0.646,1.373-0.889,1.857
		c-0.242,0.485-0.485,0.97-0.646,1.454c-0.646,1.535-1.05,2.585-1.05,3.312c0,0.323,0.242,0.484,0.727,0.484
		c0.404,0,0.728-0.081,1.051-0.242c0.322-0.161,0.484-0.242,0.565-0.242c0.161,0,0.322,0.081,0.322,0.323
		c0,0.808-0.403,1.454-1.211,2.02c-0.565,0.403-1.051,0.565-1.535,0.565s-0.808-0.081-1.131-0.162
		c-0.323-0.08-0.565-0.242-0.808-0.484c-0.566-0.484-0.809-1.131-0.809-2.02c0-1.05,0.323-2.343,0.97-3.958
		c0.484-1.051,0.808-1.777,1.05-2.182l0.485-0.969c0.242-0.566,0.403-1.051,0.403-1.374
		C443.985,398.658,443.743,398.497,443.258,398.497z"/>
	<path fill="#094063" d="M487.689,407.464c0.242,0,0.323,0.161,0.323,0.484c0,0.404-0.162,0.809-0.566,1.293
		c-0.565,0.646-1.292,0.97-2.181,0.97c-1.05,0-1.777-0.404-2.182-1.293c-0.161-0.323-0.242-0.646-0.242-1.05
		c0-0.404,0.081-0.889,0.242-1.454c0.162-0.485,0.323-1.051,0.566-1.616c0.242-0.565,0.484-1.131,0.727-1.777l0.728-1.696
		c0.484-1.292,0.808-2.101,0.808-2.504c0-0.404-0.081-0.646-0.162-0.808c-0.08-0.162-0.161-0.243-0.242-0.323l-0.242-0.162
		c-0.081-0.081-0.161-0.161-0.161-0.323c0-0.161,0.08-0.323,0.161-0.484c0.161-0.161,0.242-0.242,0.484-0.404
		c0.404-0.242,0.889-0.323,1.454-0.323c1.293,0,2.02,0.323,2.02,1.051c0,0.808-0.242,1.777-0.646,2.827
		c-0.404,1.051-0.809,1.858-1.051,2.505l-0.808,1.857c-0.565,1.373-0.889,2.343-0.889,2.989c0,0.403,0.162,0.565,0.565,0.565
		c0.404,0,0.646-0.081,0.889-0.162C487.446,407.545,487.608,407.464,487.689,407.464z M490.517,392.762
		c-0.162,0.242-0.404,0.403-0.646,0.484c-0.242,0.161-0.484,0.242-0.808,0.242c-0.242,0-0.565,0-0.808-0.161
		c-0.242-0.081-0.485-0.323-0.646-0.485c-0.404-0.484-0.565-0.889-0.565-1.373s0.081-0.808,0.242-1.05
		c0.161-0.243,0.323-0.404,0.565-0.565c0.404-0.243,0.808-0.404,1.212-0.404s0.646,0,0.889,0.081
		c0.242,0.08,0.403,0.161,0.565,0.242c0.403,0.323,0.646,0.646,0.646,1.131c0,0.404-0.081,0.808-0.162,1.05
		S490.678,392.519,490.517,392.762z"/>
	<path fill="#094063" d="M504.653,407.222c0.162,0,0.323,0.081,0.323,0.323c0,0.808-0.403,1.454-1.212,2.02
		c-0.565,0.403-1.05,0.565-1.534,0.565c-0.485,0-0.889-0.081-1.132-0.162c-0.242-0.08-0.565-0.242-0.727-0.484
		c-0.484-0.565-0.728-1.292-0.728-2.262c0-0.162,0-0.485,0.081-0.889c-0.727,1.131-1.373,1.938-1.857,2.424
		c-1.051,0.969-2.101,1.454-3.07,1.454c-1.615,0-2.666-0.728-3.15-2.182c-0.162-0.565-0.242-1.212-0.242-2.02
		s0.161-1.615,0.403-2.424c0.243-0.808,0.565-1.615,0.97-2.343c0.404-0.727,0.889-1.454,1.454-2.1
		c0.565-0.646,1.131-1.212,1.777-1.697c1.292-0.969,2.504-1.454,3.555-1.454c1.05,0,1.938,0.404,2.585,1.293
		c1.535-5.412,2.746-8.563,3.555-9.532c0.323-0.404,0.727-0.565,1.05-0.565c0.646,0,1.05,0.161,1.373,0.565
		c0.081,0.081,0.162,0.242,0.162,0.323c0,0.08-0.081,0.323-0.242,0.646c-0.162,0.323-0.323,0.809-0.646,1.535
		c-0.808,2.101-1.373,3.716-1.696,4.686c-0.808,2.504-1.374,4.281-1.696,5.251l-0.728,2.504c-0.646,2.263-0.97,3.636-0.97,4.282
		c0,0.646,0.243,0.889,0.646,0.889c0.404,0,0.728-0.081,0.97-0.162l0.484-0.242C504.492,407.303,504.573,407.222,504.653,407.222z
		 M495.363,408.11c0.97,0,2.02-0.889,3.231-2.747c1.293-1.857,2.101-3.958,2.666-6.14c0-0.646-0.323-1.05-0.808-1.373
		c-0.162-0.081-0.404-0.161-0.728-0.161s-0.727,0.08-1.131,0.322c-0.404,0.243-0.889,0.566-1.292,0.97
		c-0.404,0.404-0.809,0.889-1.132,1.454s-0.646,1.131-0.969,1.777c-0.565,1.373-0.889,2.666-0.889,3.958
		C494.313,407.464,494.637,408.11,495.363,408.11z"/>
	<path fill="#094063" d="M506.754,405.283c0-0.809,0.162-1.535,0.404-2.263c0.242-0.727,0.565-1.454,0.889-2.1
		c0.322-0.646,0.808-1.293,1.373-1.939s1.05-1.131,1.696-1.615c1.293-0.97,2.585-1.454,3.958-1.454c1.535,0,2.586,0.646,3.07,1.938
		c0.161,0.404,0.242,0.97,0.242,1.535s-0.161,1.131-0.323,1.615c-0.242,0.485-0.484,0.97-0.889,1.374
		c-0.403,0.403-0.808,0.808-1.373,1.131s-1.131,0.565-1.696,0.808c-1.293,0.484-2.666,0.727-4.12,0.727
		c0,0.162-0.081,0.323-0.081,0.565c0,0.243,0,0.566,0.081,0.889c0.081,0.323,0.161,0.565,0.323,0.809
		c0.323,0.565,0.808,0.808,1.373,0.808c1.051,0,2.101-0.323,3.07-0.889c0.322-0.242,0.646-0.404,0.889-0.646
		c0.242-0.242,0.403-0.323,0.565-0.323c0.161,0,0.322,0.081,0.403,0.323s0.162,0.404,0.162,0.646c0,0.484-0.162,0.889-0.404,1.212
		c-1.131,1.131-2.827,1.696-5.09,1.696c-1.292,0-2.423-0.404-3.23-1.212C507.077,408.029,506.673,406.817,506.754,405.283z
		 M514.671,397.77c-0.97,0-1.858,0.646-2.747,1.939c-0.727,1.131-1.373,2.423-1.777,3.958c1.535-0.161,2.828-0.727,3.959-1.777
		c1.05-0.97,1.535-1.938,1.535-2.827S515.317,397.77,514.671,397.77z"/>
	<path fill="#094063" d="M530.181,406.414c0,0.808,0.323,1.211,0.889,1.211c0.404,0,0.728-0.08,1.051-0.161
		c0.242-0.161,0.484-0.161,0.565-0.161c0.161,0,0.323,0.08,0.323,0.322c0,0.809-0.404,1.454-1.212,2.02
		c-0.889,0.566-1.777,0.728-2.666,0.404c-0.565-0.242-1.05-0.646-1.292-1.373c-0.162-0.323-0.243-0.646-0.243-0.97
		c0-0.484,0.081-0.97,0.162-1.454c-0.808,1.696-1.858,2.908-3.15,3.555c-0.485,0.242-1.051,0.404-1.616,0.404
		s-1.05-0.081-1.454-0.323c-0.403-0.243-0.727-0.565-1.05-0.97c-0.565-0.889-0.889-1.938-0.808-3.231
		c0.08-1.615,0.565-3.15,1.454-4.767c0.808-1.453,1.857-2.665,3.15-3.554c1.292-0.97,2.423-1.374,3.555-1.374
		c1.131,0,1.938,0.485,2.665,1.535c0.646-0.97,1.212-1.535,1.616-1.535c0.484,0,0.889,0.081,1.131,0.323
		c0.484,0.323,0.646,0.646,0.565,0.97c-2.262,4.686-3.474,7.513-3.474,8.725C530.181,406.01,530.181,406.171,530.181,406.414z
		 M522.668,406.414c0,1.05,0.323,1.615,1.051,1.615c0.565,0,1.211-0.484,1.938-1.373c1.131-1.293,2.182-3.15,2.989-5.413
		c0.242-0.727,0.484-1.373,0.727-2.1c0-0.646-0.323-1.051-0.808-1.374c-0.161-0.08-0.404-0.161-0.727-0.161
		c-0.323,0-0.728,0.081-1.132,0.323c-0.403,0.242-0.808,0.565-1.211,0.969c-0.404,0.404-0.809,0.889-1.132,1.454
		c-0.322,0.565-0.646,1.132-0.888,1.777C522.91,403.667,522.668,405.04,522.668,406.414z"/>
	<path fill="#094063" d="M534.14,407.625c0-0.242,0.081-0.565,0.161-0.808c0.162-0.242,0.242-0.403,0.485-0.565
		c0.403-0.323,0.808-0.565,1.211-0.565c0.323,0,0.565,0.162,0.565,0.565c0,0.97,0.323,1.616,0.97,1.939
		c0.242,0.161,0.485,0.242,0.728,0.242s0.484,0,0.646-0.081c0.161-0.081,0.322-0.162,0.484-0.242
		c0.323-0.242,0.484-0.565,0.484-0.97c0-0.323-0.081-0.727-0.242-0.97c-0.162-0.322-0.404-0.646-0.646-0.969l-0.808-1.051
		c-1.05-1.454-1.616-2.746-1.616-4.039c0-1.05,0.404-1.938,1.293-2.746c0.97-0.97,2.262-1.374,3.797-1.374
		c1.373,0,2.424,0.323,3.15,0.97c0.646,0.565,0.889,1.131,0.889,1.858c0,0.727-0.242,1.292-0.808,1.696
		c-0.484,0.403-0.97,0.484-1.454,0.403c-0.242-0.08-0.404-0.161-0.484-0.322c-0.081-0.162-0.162-0.404-0.081-0.565
		c0.081-0.243,0.081-0.485,0.081-0.728s-0.081-0.484-0.162-0.646c-0.081-0.242-0.242-0.403-0.403-0.565
		c-0.323-0.323-0.646-0.484-0.97-0.484s-0.646,0-0.889,0.081c-0.242,0.08-0.404,0.161-0.565,0.322
		c-0.323,0.323-0.565,0.728-0.565,1.212c0,0.485,0.08,0.889,0.242,1.212c0.161,0.323,0.404,0.728,0.565,1.051
		c0.242,0.322,0.484,0.727,0.808,1.05c0.242,0.323,0.565,0.727,0.808,1.131c0.566,0.889,0.889,1.696,0.889,2.424
		c0,0.727-0.161,1.292-0.403,1.777c-0.323,0.484-0.646,0.888-1.131,1.211c-0.97,0.728-2.101,1.132-3.312,1.132
		c-1.131,0-2.101-0.243-2.746-0.809C534.382,408.837,534.14,408.271,534.14,407.625z"/>
	<path fill="#094063" d="M580.832,405.283c0-0.809,0.162-1.535,0.404-2.263c0.242-0.727,0.565-1.454,0.889-2.1
		c0.323-0.646,0.808-1.293,1.373-1.939s1.05-1.131,1.696-1.615c1.293-0.97,2.585-1.454,3.959-1.454c1.534,0,2.585,0.646,3.069,1.938
		c0.162,0.404,0.242,0.97,0.242,1.535s-0.161,1.131-0.323,1.615c-0.242,0.485-0.484,0.97-0.889,1.374
		c-0.403,0.403-0.808,0.808-1.373,1.131s-1.131,0.565-1.696,0.808c-1.293,0.484-2.666,0.727-4.12,0.727
		c0,0.162-0.081,0.323-0.081,0.565c0,0.243,0,0.566,0.081,0.889c0.081,0.323,0.162,0.565,0.323,0.809
		c0.323,0.565,0.808,0.808,1.373,0.808c1.051,0,2.101-0.323,3.07-0.889c0.323-0.242,0.646-0.404,0.889-0.646
		s0.403-0.323,0.565-0.323c0.161,0,0.323,0.081,0.403,0.323c0.081,0.242,0.162,0.404,0.162,0.646c0,0.484-0.162,0.889-0.404,1.212
		c-1.131,1.131-2.827,1.696-5.089,1.696c-1.293,0-2.424-0.404-3.231-1.212C581.155,408.029,580.752,406.817,580.832,405.283z
		 M588.749,397.77c-0.97,0-1.858,0.646-2.747,1.939c-0.727,1.131-1.373,2.423-1.776,3.958c1.534-0.161,2.827-0.727,3.958-1.777
		c1.05-0.97,1.535-1.938,1.535-2.827C589.638,398.174,589.396,397.77,588.749,397.77z"/>
	<path fill="#094063" d="M594.404,409.726c-0.404,0.242-0.728,0.404-0.889,0.404c-0.242,0-0.404,0-0.565-0.081
		c-0.162-0.081-0.243-0.161-0.404-0.242c-0.242-0.242-0.404-0.404-0.404-0.646c0-0.161,0.081-0.323,0.323-0.484l0.809-0.646
		c1.453-1.212,2.746-2.585,3.716-3.958c-0.809-2.182-1.131-4.039-1.051-5.493c0-0.728,0.323-1.374,0.97-1.858
		c0.565-0.484,1.131-0.727,1.777-0.727c0.161,0,0.323,0.08,0.323,0.161c0.081,0.161,0.081,0.323,0.081,0.565s0,0.484,0,0.728
		c0,0.242,0,0.565,0,0.808c0,0.323,0,0.646,0.08,0.969c0.081,0.889,0.162,1.616,0.242,2.182l0.485-0.728
		c1.05-1.615,2.262-2.908,3.635-3.877c0.808-0.565,1.454-0.808,2.02-0.808c0.485,0,0.889,0.08,1.212,0.242
		c0.484,0.242,0.728,0.565,0.565,0.808c0,0.081-0.081,0.081-0.161,0.081l-0.323,0.161c-1.454,0.646-3.231,2.182-5.493,4.604
		c-0.485,0.485-0.889,0.97-1.212,1.454l0.484,1.616c0.565,1.938,1.293,2.827,2.101,2.827c0.323,0,0.646-0.081,0.889-0.161
		l0.484-0.243c0.081-0.08,0.162-0.08,0.323-0.08s0.323,0.08,0.323,0.323c0,0.808-0.404,1.454-1.212,2.02
		c-0.565,0.323-1.131,0.565-1.858,0.565c-1.292,0-2.504-1.374-3.635-4.12C596.504,407.706,595.454,408.918,594.404,409.726z"/>
	<path fill="#094063" d="M609.188,408.676c0,0.161-0.242,0.889-0.565,2.181c-0.404,1.293-0.728,2.343-0.97,3.07
		c-0.565,1.696-1.05,2.746-1.373,3.15c-0.323,0.323-0.646,0.484-1.051,0.484c-0.484,0-0.889-0.242-1.211-0.727
		c-0.081-0.162-0.162-0.323-0.162-0.485c0-0.161,0.162-0.565,0.404-1.131c0.727-1.454,1.696-4.442,2.827-8.805
		c0.484-1.777,0.808-2.908,0.97-3.555l0.403-1.696c0.242-1.131,0.485-1.858,0.485-2.263c0.08-0.403,0-0.727-0.081-0.888
		c-0.081-0.162-0.242-0.323-0.323-0.404c-0.162-0.081-0.242-0.162-0.323-0.242c-0.081-0.081-0.161-0.162-0.161-0.323
		c0-0.162,0.08-0.323,0.242-0.484c0.161-0.162,0.323-0.243,0.484-0.323c0.404-0.162,0.808-0.323,1.212-0.323
		c0.403,0,0.727,0.081,0.97,0.161c0.242,0.081,0.403,0.242,0.565,0.404c0.323,0.323,0.484,0.727,0.403,1.05
		c-0.08,0.728-0.161,1.293-0.323,1.777c1.616-2.262,3.231-3.393,4.928-3.393c1.535,0,2.585,0.808,3.07,2.423
		c0.161,0.566,0.242,1.212,0.242,2.021c0,0.808-0.162,1.615-0.404,2.423s-0.565,1.616-0.969,2.262
		c-0.404,0.728-0.889,1.374-1.454,2.02c-0.565,0.646-1.131,1.132-1.777,1.616c-1.293,0.97-2.505,1.373-3.717,1.373
		C610.642,410.13,609.753,409.645,609.188,408.676z M611.287,402.94c-0.322,0.646-0.565,1.292-0.808,1.938s-0.323,1.212-0.323,1.777
		s0.081,0.969,0.323,1.292s0.565,0.485,0.97,0.485s0.889-0.081,1.293-0.323c0.403-0.242,0.888-0.565,1.292-0.97
		c0.404-0.403,0.808-0.889,1.131-1.454s0.646-1.131,0.97-1.777c0.565-1.373,0.889-2.585,0.889-3.797
		c0-0.646-0.081-1.131-0.242-1.534c-0.162-0.323-0.404-0.565-0.809-0.565c-0.322,0-0.727,0.161-1.131,0.403
		c-0.403,0.242-0.808,0.646-1.212,1.131c-0.403,0.485-0.808,0.97-1.292,1.535C612.015,401.647,611.61,402.294,611.287,402.94z"/>
	<path fill="#094063" d="M622.193,405.283c0-0.809,0.161-1.535,0.404-2.263c0.242-0.727,0.565-1.454,0.889-2.1
		c0.322-0.646,0.808-1.293,1.373-1.939s1.05-1.131,1.696-1.615c1.292-0.97,2.585-1.454,3.958-1.454c1.535,0,2.586,0.646,3.07,1.938
		c0.161,0.404,0.242,0.97,0.242,1.535s-0.162,1.131-0.323,1.615c-0.242,0.485-0.484,0.97-0.889,1.374
		c-0.403,0.403-0.808,0.808-1.373,1.131s-1.131,0.565-1.696,0.808c-1.293,0.484-2.666,0.727-4.12,0.727
		c0,0.162-0.081,0.323-0.081,0.565c0,0.243,0,0.566,0.081,0.889c0.081,0.323,0.161,0.565,0.323,0.809
		c0.323,0.565,0.808,0.808,1.373,0.808c1.05,0,2.101-0.323,3.07-0.889c0.322-0.242,0.646-0.404,0.888-0.646
		c0.243-0.242,0.404-0.323,0.565-0.323c0.162,0,0.323,0.081,0.404,0.323s0.162,0.404,0.162,0.646c0,0.484-0.162,0.889-0.404,1.212
		c-1.131,1.131-2.827,1.696-5.09,1.696c-1.292,0-2.423-0.404-3.23-1.212C622.598,408.029,622.193,406.817,622.193,405.283z
		 M630.11,397.77c-0.97,0-1.858,0.646-2.747,1.939c-0.727,1.131-1.373,2.423-1.777,3.958c1.535-0.161,2.828-0.727,3.959-1.777
		c1.05-0.97,1.534-1.938,1.534-2.827S630.757,397.77,630.11,397.77z"/>
	<path fill="#094063" d="M635.199,409.645c-0.161-0.161-0.323-0.322-0.403-0.484c-0.081-0.161-0.162-0.323-0.162-0.403
		c0-0.162,0-0.243,0.081-0.485c0.081-0.161,0.161-0.403,0.242-0.646c1.858-4.523,2.747-7.593,2.747-9.128
		c0-0.404-0.162-0.728-0.485-0.889l-0.242-0.162c-0.081-0.08-0.161-0.161-0.161-0.322c0-0.162,0.08-0.323,0.161-0.485
		c0.081-0.161,0.242-0.242,0.484-0.403c0.404-0.243,0.809-0.323,1.212-0.323c0.404,0,0.728,0.08,0.97,0.161s0.404,0.242,0.565,0.404
		c0.323,0.323,0.484,0.646,0.484,1.05c0,0.323,0,0.728-0.161,1.131c-0.081,0.404-0.162,0.728-0.323,1.131
		c-0.081,0.323-0.242,0.728-0.323,1.051s-0.161,0.565-0.242,0.727c-0.081,0.323-0.081,0.485-0.081,0.565
		c0.242-0.161,0.323-0.403,0.404-0.565l0.565-0.969c1.212-2.101,2.343-3.555,3.474-4.201c0.323-0.161,0.727-0.323,1.212-0.323
		c0.484,0,0.808,0.162,1.131,0.484c0.242,0.323,0.404,0.646,0.404,1.051c0,0.403,0,0.727-0.081,0.97
		c-0.081,0.242-0.162,0.484-0.323,0.727c-0.323,0.484-0.646,0.728-1.051,0.728c-0.08,0-0.242-0.081-0.322-0.162l-0.323-0.242
		c-0.323-0.242-0.565-0.404-0.889-0.404c-0.242,0-0.646,0.162-0.97,0.565c-0.404,0.323-0.808,0.809-1.212,1.374
		c-1.454,1.857-2.585,4.039-3.474,6.382l-0.565,1.534c-0.161,0.404-0.323,0.646-0.403,0.809c-0.081,0.161-0.323,0.242-0.485,0.242
		c-0.242,0-0.484-0.081-0.727-0.162C635.604,409.888,635.441,409.807,635.199,409.645z"/>
	<path fill="#094063" d="M651.033,407.464c0.242,0,0.323,0.161,0.323,0.484c0,0.404-0.162,0.809-0.565,1.293
		c-0.565,0.646-1.293,0.97-2.182,0.97c-1.05,0-1.777-0.404-2.181-1.293c-0.162-0.323-0.243-0.646-0.243-1.05
		c0-0.404,0.081-0.889,0.243-1.454c0.161-0.485,0.323-1.051,0.565-1.616s0.484-1.131,0.727-1.777l0.728-1.696
		c0.484-1.292,0.808-2.101,0.808-2.504c0-0.404-0.081-0.646-0.162-0.808c-0.08-0.162-0.161-0.243-0.242-0.323l-0.242-0.162
		c-0.08-0.081-0.161-0.161-0.161-0.323c0-0.161,0.08-0.323,0.161-0.484c0.162-0.161,0.242-0.242,0.484-0.404
		c0.404-0.242,0.889-0.323,1.455-0.323c1.292,0,2.02,0.323,2.02,1.051c0,0.808-0.243,1.777-0.646,2.827
		c-0.404,1.051-0.808,1.858-1.051,2.505l-0.808,1.857c-0.565,1.373-0.889,2.343-0.889,2.989c0,0.403,0.162,0.565,0.565,0.565
		c0.404,0,0.646-0.081,0.889-0.162C650.791,407.545,650.952,407.464,651.033,407.464z M653.86,392.762
		c-0.161,0.242-0.403,0.403-0.646,0.484c-0.242,0.161-0.484,0.242-0.808,0.242c-0.242,0-0.565,0-0.808-0.161
		c-0.242-0.081-0.484-0.323-0.646-0.485c-0.403-0.484-0.565-0.889-0.565-1.373s0.081-0.808,0.242-1.05
		c0.162-0.243,0.323-0.404,0.565-0.565c0.404-0.243,0.808-0.404,1.212-0.404s0.646,0,0.889,0.081
		c0.242,0.08,0.404,0.161,0.565,0.242c0.404,0.323,0.646,0.646,0.646,1.131c0,0.404-0.081,0.808-0.162,1.05
		C654.184,392.276,654.021,392.519,653.86,392.762z"/>
	<path fill="#094063" d="M654.588,405.283c0-0.809,0.161-1.535,0.403-2.263c0.242-0.727,0.565-1.454,0.889-2.1
		c0.323-0.646,0.808-1.293,1.373-1.939s1.051-1.131,1.697-1.615c1.292-0.97,2.585-1.454,3.958-1.454
		c1.535,0,2.585,0.646,3.069,1.938c0.162,0.404,0.243,0.97,0.243,1.535s-0.162,1.131-0.323,1.615
		c-0.243,0.485-0.485,0.97-0.889,1.374c-0.404,0.403-0.808,0.808-1.374,1.131c-0.565,0.323-1.131,0.565-1.696,0.808
		c-1.292,0.484-2.666,0.727-4.12,0.727c0,0.162-0.08,0.323-0.08,0.565c0,0.243,0,0.566,0.08,0.889
		c0.081,0.323,0.162,0.565,0.323,0.809c0.323,0.565,0.809,0.808,1.374,0.808c1.05,0,2.1-0.323,3.069-0.889
		c0.323-0.242,0.646-0.404,0.889-0.646s0.404-0.323,0.565-0.323c0.162,0,0.323,0.081,0.404,0.323
		c0.08,0.242,0.161,0.404,0.161,0.646c0,0.484-0.161,0.889-0.403,1.212c-1.132,1.131-2.828,1.696-5.09,1.696
		c-1.293,0-2.424-0.404-3.231-1.212C654.991,408.029,654.507,406.817,654.588,405.283z M662.504,397.77
		c-0.969,0-1.857,0.646-2.746,1.939c-0.728,1.131-1.373,2.423-1.777,3.958c1.535-0.161,2.827-0.727,3.958-1.777
		c1.051-0.97,1.535-1.938,1.535-2.827S663.15,397.77,662.504,397.77z"/>
	<path fill="#094063" d="M677.368,398.497c-0.242,0-0.646,0.242-1.212,0.808c-0.484,0.565-0.969,1.05-1.373,1.454l-1.131,1.373
		l-2.262,2.828c-0.565,0.969-0.97,1.857-1.212,2.504l-0.728,1.535c-0.161,0.403-0.322,0.646-0.484,0.808
		c-0.161,0.161-0.323,0.242-0.565,0.242s-0.484-0.081-0.728-0.161c-0.242-0.081-0.403-0.162-0.565-0.323
		c-0.322-0.323-0.484-0.565-0.484-0.97c0-0.161,0.081-0.403,0.323-0.808l0.484-1.131c0.162-0.323,0.323-0.728,0.565-1.212
		l0.728-1.858c1.05-2.665,1.615-4.362,1.615-5.17c0-0.403-0.161-0.727-0.403-0.889l-0.242-0.161
		c-0.081-0.081-0.162-0.162-0.162-0.323c0-0.162,0.081-0.323,0.162-0.484c0.161-0.162,0.242-0.243,0.484-0.404
		c0.404-0.242,0.808-0.323,1.212-0.323c0.403,0,0.727,0.081,0.969,0.161c0.243,0.081,0.404,0.243,0.566,0.404
		c0.322,0.323,0.484,0.646,0.484,0.97s-0.081,0.727-0.162,1.05c-0.08,0.323-0.161,0.728-0.323,1.051
		c-0.161,0.322-0.242,0.727-0.403,1.05c-0.162,0.323-0.242,0.646-0.404,0.889l-0.242,0.565c-0.081,0.161-0.081,0.161-0.081,0.161
		c0.97-1.373,1.696-2.262,2.02-2.665l0.97-1.132c0.728-0.808,1.212-1.373,1.616-1.615c0.808-0.565,1.454-0.808,1.938-0.808
		s0.889,0.08,1.131,0.161c0.323,0.081,0.565,0.323,0.808,0.485c0.485,0.484,0.728,1.05,0.728,1.776c0,0.728-0.162,1.454-0.485,2.263
		c-0.322,0.808-0.646,1.373-0.888,1.857c-0.243,0.485-0.485,0.97-0.646,1.454c-0.646,1.535-1.051,2.585-1.051,3.312
		c0,0.323,0.243,0.484,0.728,0.484c0.403,0,0.727-0.081,1.05-0.242s0.485-0.242,0.565-0.242c0.162,0,0.323,0.081,0.323,0.323
		c0,0.808-0.403,1.454-1.212,2.02c-0.565,0.403-1.05,0.565-1.534,0.565c-0.485,0-0.809-0.081-1.131-0.162
		c-0.323-0.08-0.566-0.242-0.809-0.484c-0.565-0.484-0.808-1.131-0.808-2.02c0-1.05,0.323-2.343,0.97-3.958
		c0.484-1.051,0.808-1.777,1.05-2.182l0.485-0.969c0.242-0.566,0.403-1.051,0.403-1.374
		C678.096,398.658,677.854,398.497,677.368,398.497z"/>
	<path fill="#094063" d="M683.104,405.283c0-0.809,0.162-1.535,0.404-2.343c0.242-0.809,0.565-1.535,0.889-2.182
		c0.404-0.727,0.808-1.373,1.373-1.938s1.131-1.131,1.696-1.535c1.293-0.889,2.666-1.373,4.12-1.373s2.505,0.565,2.989,1.777
		c0.161,0.403,0.242,0.889,0.242,1.454s-0.081,1.05-0.242,1.454c-0.161,0.484-0.404,0.808-0.646,1.211
		c-0.565,0.809-1.131,1.212-1.696,1.212c-0.646,0-1.05-0.161-1.373-0.484c-0.242-0.323-0.323-0.646-0.242-1.05
		c0-0.081,0.08-0.243,0.242-0.323c0.161-0.081,0.323-0.242,0.484-0.485c0.565-0.646,0.889-1.373,0.889-2.181
		c0-0.565-0.323-0.808-1.05-0.808c-0.728,0-1.535,0.403-2.424,1.292c-1.212,1.212-2.101,2.827-2.585,4.767
		c-0.404,1.696-0.323,2.908,0.242,3.716c0.323,0.484,0.808,0.646,1.454,0.646c1.05,0,2.02-0.323,2.989-1.051
		c0.323-0.242,0.484-0.484,0.727-0.727c0.162-0.242,0.323-0.323,0.485-0.323c0.161,0,0.242,0.081,0.403,0.242
		c0.081,0.162,0.162,0.323,0.162,0.565c0,0.565-0.242,1.051-0.728,1.535c-1.212,1.212-2.746,1.777-4.443,1.777
		c-1.454,0-2.585-0.404-3.393-1.293C683.427,408.029,683.104,406.817,683.104,405.283z"/>
	<path fill="#094063" d="M696.271,405.283c0-0.809,0.162-1.535,0.404-2.263c0.242-0.727,0.565-1.454,0.889-2.1
		c0.323-0.646,0.808-1.293,1.373-1.939s1.05-1.131,1.696-1.615c1.293-0.97,2.585-1.454,3.959-1.454c1.534,0,2.585,0.646,3.069,1.938
		c0.162,0.404,0.242,0.97,0.242,1.535s-0.161,1.131-0.323,1.615c-0.242,0.485-0.484,0.97-0.889,1.374
		c-0.403,0.403-0.808,0.808-1.373,1.131s-1.131,0.565-1.696,0.808c-1.293,0.484-2.666,0.727-4.12,0.727
		c0,0.162-0.081,0.323-0.081,0.565c0,0.243,0,0.566,0.081,0.889c0.081,0.323,0.162,0.565,0.323,0.809
		c0.323,0.565,0.808,0.808,1.373,0.808c1.051,0,2.101-0.323,3.07-0.889c0.323-0.242,0.646-0.404,0.889-0.646
		s0.403-0.323,0.565-0.323c0.161,0,0.323,0.081,0.403,0.323c0.081,0.242,0.162,0.404,0.162,0.646c0,0.484-0.162,0.889-0.404,1.212
		c-1.131,1.131-2.827,1.696-5.089,1.696c-1.293,0-2.424-0.404-3.231-1.212C696.595,408.029,696.191,406.817,696.271,405.283z
		 M704.188,397.77c-0.97,0-1.858,0.646-2.747,1.939c-0.727,1.131-1.373,2.423-1.777,3.958c1.535-0.161,2.828-0.727,3.959-1.777
		c1.05-0.97,1.535-1.938,1.535-2.827C705.077,398.174,704.754,397.77,704.188,397.77z"/>
	<path fill="#094063" d="M708.551,407.625c0-0.242,0.081-0.565,0.161-0.808c0.162-0.242,0.243-0.403,0.485-0.565
		c0.403-0.323,0.808-0.565,1.212-0.565c0.322,0,0.565,0.162,0.565,0.565c0,0.97,0.322,1.616,0.969,1.939
		c0.242,0.161,0.485,0.242,0.728,0.242s0.484,0,0.646-0.081c0.161-0.081,0.323-0.162,0.484-0.242
		c0.323-0.242,0.484-0.565,0.484-0.97c0-0.323-0.081-0.727-0.242-0.97c-0.161-0.322-0.404-0.646-0.646-0.969l-0.808-1.051
		c-1.05-1.454-1.615-2.746-1.615-4.039c0-1.05,0.403-1.938,1.292-2.746c0.97-0.97,2.262-1.374,3.797-1.374
		c1.373,0,2.424,0.323,3.15,0.97c0.646,0.565,0.889,1.131,0.889,1.858c0,0.727-0.242,1.292-0.808,1.696
		c-0.484,0.403-0.97,0.484-1.454,0.403c-0.242-0.08-0.404-0.161-0.484-0.322c-0.081-0.162-0.162-0.404-0.081-0.565
		c0.081-0.243,0.081-0.485,0.081-0.728s-0.081-0.484-0.162-0.646c-0.08-0.242-0.242-0.403-0.403-0.565
		c-0.323-0.323-0.646-0.484-0.97-0.484s-0.646,0-0.889,0.081c-0.242,0.08-0.404,0.161-0.565,0.322
		c-0.323,0.323-0.565,0.728-0.565,1.212c0,0.485,0.081,0.889,0.242,1.212s0.404,0.728,0.565,1.051
		c0.242,0.322,0.484,0.727,0.808,1.05c0.243,0.323,0.565,0.727,0.809,1.131c0.565,0.889,0.888,1.696,0.888,2.424
		c0,0.727-0.161,1.292-0.403,1.777c-0.323,0.484-0.646,0.888-1.131,1.211c-0.97,0.728-2.101,1.132-3.312,1.132
		c-1.131,0-2.101-0.243-2.746-0.809C708.874,408.837,708.551,408.271,708.551,407.625z"/>
</g>
<circle fill="#09A6E0" cx="465.797" cy="403.263" r="3.151"/>
<circle fill="#09A6E0" cx="563.383" cy="403.263" r="3.151"/>
</svg>
